<svg xmlns="http://www.w3.org/2000/svg" viewBox="0 0 100 100"><defs><style>.cls-1{fill:none;}.cls-2{fill:#fff;}</style></defs><title>do restorana</title><g id="Layer_2" data-name="Layer 2"><g id="Layer_1-2" data-name="Layer 1"><rect class="cls-1" width="100" height="100"/><path class="cls-2" d="M60.55,36.76c0-1.34,0-2.68-.11-4A3,3,0,0,0,57.79,30a3.12,3.12,0,0,0-3.64,3.29c0,6.74,0,13.47-.06,20.21,0,.2,0,.4.07.67h2.17c0,1.57,0,3,0,4.43,0,3.07,0,6.14,0,9.21A2.15,2.15,0,0,0,58.42,70a1.93,1.93,0,0,0,2-2c0-.86.08-1.73.08-2.59Q60.56,51.07,60.55,36.76Z"/><path class="cls-2" d="M48.45,30c-.64,0-.72.46-.72,1,0,2.33,0,4.65,0,7,0,.56,0,1.11,0,1.66H46.36c0-.37,0-.69,0-1q0-3.8,0-7.6c0-.49,0-1-.68-1s-.65.52-.66,1c0,2.09,0,4.17,0,6.26,0,.8,0,1.59,0,2.39H43.64c0-.3,0-.53,0-.77,0-2.68,0-5.37-.06-8.05A1,1,0,0,0,43,30c-.48-.11-.75.22-.75.75s0,1,0,1.52c0,2.44,0,4.88,0,7.35H40.93c0-.45,0-.81,0-1.16q0-3.76,0-7.51c0-.52-.11-1-.76-1s-.7.41-.7.93c0,4,0,7.93,0,11.9a2.65,2.65,0,0,0,2.23,2.81c.14,0,.28.1.47.17v1c0,3.94,0,7.87,0,11.81q0,4.7.12,9.39a1.93,1.93,0,0,0,2,2,2,2,0,0,0,2.14-1.91c.05-.53.05-1.07.05-1.61q0-9.84,0-19.68c0-.32,0-.65,0-1a3.4,3.4,0,0,1,.38-.17,2.74,2.74,0,0,0,2.32-3c0-3.88,0-7.75,0-11.63C49.15,30.52,49.13,30,48.45,30Z"/></g></g></svg>