<svg xmlns="http://www.w3.org/2000/svg" viewBox="0 0 100 100"><defs><style>.cls-1{fill:none;}.cls-2{fill:#fff;}</style></defs><title>more_dist</title><g id="Layer_2" data-name="Layer 2"><g id="Layer_1-2" data-name="Layer 1"><rect class="cls-1" width="100" height="100"/><path class="cls-2" d="M27.95,68.76V57.09h2.53l3.22,7.24h.08L37,57.09h2.51V68.76H37.29V61.2h-.1l-2.69,6H33l-2.69-6h-.1v7.56Z"/><path class="cls-2" d="M41.48,62.23c0-3.32,1.91-5.37,5.08-5.37s5.06,2.07,5.06,5.37v1.45c0,3.29-1.9,5.29-5.08,5.29s-5.06-2-5.06-5.29ZM44,63.7c0,2.18,1.06,3.24,2.55,3.24s2.55-1.06,2.55-3.24V62.21c0-2.17-1.05-3.3-2.55-3.3S44,60,44,62.21Z"/><path class="cls-2" d="M62.48,60.81a3.45,3.45,0,0,1-2.11,3.28l2.34,4.66H60l-2-4.29H56v4.29H53.57V57.09h4.76C61.13,57.09,62.48,58.71,62.48,60.81Zm-4.55,1.83c1.23,0,2-.62,2-1.79A1.77,1.77,0,0,0,58,59H56v3.65Z"/><path class="cls-2" d="M72.05,68.76H64.43V57.09h7.62v2H66.88v2.84h4.86v1.86H66.88v3h5.17Z"/><path class="cls-2" d="M35.69,81.6a1.86,1.86,0,0,0,2,1.46,2.07,2.07,0,0,0,2.08-2.14,2,2,0,0,0-2.07-2.12,2.12,2.12,0,0,0-2,1.17H33.57l.54-6.88h7.27v2h-5.3L35.79,78h.09a3.1,3.1,0,0,1,2.5-1,3.74,3.74,0,0,1,3.85,3.86c0,2.57-1.92,4.19-4.56,4.19s-4.19-1.56-4.26-3.4Z"/><path class="cls-2" d="M43.51,78.54c0-3.39,1.63-5.66,4.51-5.66s4.46,2.26,4.46,5.66v.79C52.47,82.55,51,85,48,85s-4.46-2.28-4.46-5.67Zm2.47.78c0,2.44.8,3.67,2,3.67s2-1.24,2-3.67v-.77c0-2.43-.8-3.66-2-3.66s-2,1.22-2,3.66Z"/><path class="cls-2" d="M54.35,84.78V73.1h2.53l3.22,7.24h.08L63.4,73.1h2.51V84.78H63.69V77.22h-.1l-2.69,6H59.35l-2.69-6h-.1v7.56Z"/><path class="cls-2" d="M17.17,45.75v-1c.05-.09.11-.17.15-.27a2.14,2.14,0,0,1,3.45-.83,4.51,4.51,0,0,0,3,1.24,4.68,4.68,0,0,0,3.12-1.44,8.14,8.14,0,0,1,7.56-1.93,8,8,0,0,1,3.83,2.09,4.15,4.15,0,0,0,3.49,1.24,5.07,5.07,0,0,0,2.71-1.47,8.13,8.13,0,0,1,7.4-1.88,7.84,7.84,0,0,1,3.8,2,4.31,4.31,0,0,0,3.46,1.36,4.7,4.7,0,0,0,2.74-1.39,8.17,8.17,0,0,1,7.74-1.94,7.76,7.76,0,0,1,3.61,2,4.25,4.25,0,0,0,3.46,1.33,4.65,4.65,0,0,0,2.55-1.22,2.14,2.14,0,0,1,3.45.83c0,.09.1.18.15.27v1a5.74,5.74,0,0,1-.73,1.1A8.18,8.18,0,0,1,74.36,49a8.78,8.78,0,0,1-4.14-2.31,3.89,3.89,0,0,0-2.8-1.06,4.58,4.58,0,0,0-3,1.43,8.33,8.33,0,0,1-11.21,0,7.52,7.52,0,0,0-1.1-.88c-1.68-1-3.44-.73-5.14.79a8.32,8.32,0,0,1-11.4,0c-2-1.83-4-1.84-6.09,0a8.1,8.1,0,0,1-7.16,2.11A6.72,6.72,0,0,1,17.17,45.75Z"/><path class="cls-2" d="M17.17,32.62v-1c.05-.09.11-.17.15-.27a2.14,2.14,0,0,1,3.45-.83,4.51,4.51,0,0,0,3,1.24,4.68,4.68,0,0,0,3.12-1.44,8.14,8.14,0,0,1,7.56-1.93,8,8,0,0,1,3.83,2.09,4.15,4.15,0,0,0,3.49,1.24,5.07,5.07,0,0,0,2.71-1.47,8.13,8.13,0,0,1,7.4-1.88,7.84,7.84,0,0,1,3.8,2,4.31,4.31,0,0,0,3.46,1.36,4.7,4.7,0,0,0,2.74-1.39,8.17,8.17,0,0,1,7.74-1.94,7.76,7.76,0,0,1,3.61,2,4.25,4.25,0,0,0,3.46,1.33,4.65,4.65,0,0,0,2.55-1.22,2.14,2.14,0,0,1,3.45.83c0,.09.1.18.15.27v1a5.74,5.74,0,0,1-.73,1.1,8.18,8.18,0,0,1-7.74,2.14,8.78,8.78,0,0,1-4.14-2.31,3.89,3.89,0,0,0-2.8-1.06,4.58,4.58,0,0,0-3,1.43,8.33,8.33,0,0,1-11.21,0,7.52,7.52,0,0,0-1.1-.88c-1.68-1-3.44-.73-5.14.79a8.32,8.32,0,0,1-11.4,0c-2-1.83-4-1.84-6.09,0a8.1,8.1,0,0,1-7.16,2.11A6.72,6.72,0,0,1,17.17,32.62Z"/><path class="cls-2" d="M17.17,19.49v-1c.05-.09.11-.17.15-.27a2.14,2.14,0,0,1,3.45-.83,4.51,4.51,0,0,0,3,1.24,4.68,4.68,0,0,0,3.12-1.44,8.14,8.14,0,0,1,7.56-1.93,8,8,0,0,1,3.83,2.09,4.15,4.15,0,0,0,3.49,1.24,5.07,5.07,0,0,0,2.71-1.47,8.13,8.13,0,0,1,7.4-1.88,7.84,7.84,0,0,1,3.8,2,4.31,4.31,0,0,0,3.46,1.36,4.7,4.7,0,0,0,2.74-1.39,8.17,8.17,0,0,1,7.74-1.94,7.76,7.76,0,0,1,3.61,2,4.25,4.25,0,0,0,3.46,1.33,4.65,4.65,0,0,0,2.55-1.22,2.14,2.14,0,0,1,3.45.83c0,.09.1.18.15.27v1a5.74,5.74,0,0,1-.73,1.1,8.18,8.18,0,0,1-7.74,2.14,8.78,8.78,0,0,1-4.14-2.31,3.89,3.89,0,0,0-2.8-1.06,4.58,4.58,0,0,0-3,1.43,8.33,8.33,0,0,1-11.21,0,7.52,7.52,0,0,0-1.1-.88c-1.68-1-3.44-.73-5.14.79a8.32,8.32,0,0,1-11.4,0c-2-1.83-4-1.84-6.09,0a8.1,8.1,0,0,1-7.16,2.11A6.72,6.72,0,0,1,17.17,19.49Z"/></g></g></svg>