<svg xmlns="http://www.w3.org/2000/svg" viewBox="0 0 100 100"><defs><style>.cls-1{fill:none;}.cls-2{fill:#fff;}</style></defs><title>teretana</title><g id="Layer_2" data-name="Layer 2"><g id="Layer_1-2" data-name="Layer 1"><rect class="cls-1" width="100" height="100"/><g id="HZUy6b.tif"><path class="cls-2" d="M15,50.76V49.24a3.92,3.92,0,0,1,4.36-2.68c1.08.07,2.17,0,3.41,0,0-2.31,0-4.46,0-6.6,0-1.66.54-3.12,2.06-3.77a16.58,16.58,0,0,1,3.87-.63c0-.29,0-1,0-1.62a4,4,0,0,1,4.14-3.76c2.32.06,3.86,1.76,3.88,4.41,0,3.51,0,7,0,10.52q0,.67,0,1.34H62.25c0-2.6,0-5.09,0-7.58,0-1.69-.07-3.39.08-5.06a3.88,3.88,0,0,1,4.24-3.62,3.93,3.93,0,0,1,3.72,4c0,.57,0,1.15,0,1.65a12.64,12.64,0,0,1,2.48-.21,3.81,3.81,0,0,1,3.41,3.92c.06,2.27,0,4.54,0,7,1.58,0,3,.07,4.43,0A3.94,3.94,0,0,1,85,49.24v1.52a3.94,3.94,0,0,1-4.37,2.68c-1.42-.08-2.85,0-4.42,0,0,2.31,0,4.46,0,6.6,0,1.65-.54,3.12-2.06,3.77a16.56,16.56,0,0,1-3.87.63c0,.25,0,.87,0,1.5a4,4,0,0,1-4.4,3.88c-2.17-.16-3.61-1.86-3.63-4.4,0-3.51,0-7,0-10.52q0-.67,0-1.34H36.74c0,3.41,0,6.7,0,10a19.33,19.33,0,0,1-.14,3,3.89,3.89,0,0,1-4.31,3.24A3.93,3.93,0,0,1,28.7,66c0-.66,0-1.32,0-1.9a12.76,12.76,0,0,1-2.49.21,3.81,3.81,0,0,1-3.41-3.92c-.06-2.27,0-4.54,0-7-1.25,0-2.34-.06-3.42,0A3.92,3.92,0,0,1,15,50.76Z"/></g></g></g></svg>