<svg xmlns="http://www.w3.org/2000/svg" viewBox="0 0 100 100"><defs><style>.cls-1{fill:none;}.cls-2{fill:#fff;}</style></defs><title>supermarket</title><g id="Layer_2" data-name="Layer 2"><g id="Layer_1-2" data-name="Layer 1"><rect class="cls-1" width="100" height="100"/><g id="qeGsuM.tif"><path class="cls-2" d="M15,27.53V22.95a2.11,2.11,0,0,1,2.19-1.28c4.36,0,8.72,0,13.08,0a3.14,3.14,0,0,1,3.3,2.68q.61,2.58,1.1,5.19c.11.56.25.79.9.79q22.85,0,45.71,0c1.63,0,3,.34,3.73,2v1a.62.62,0,0,0-.09.14l-3.25,9.8q-1.41,4.24-2.82,8.48-1.2,3.57-2.42,7.14a2.23,2.23,0,0,1-2,1.65c-.52,0-1,.08-1.56.08H42.41c.08.44.17.79.2,1.16s.18.4.47.42A6.39,6.39,0,0,1,48,64.91a.91.91,0,0,0,.63.33q9.73,0,19.45,0a1,1,0,0,0,.67-.28,7.62,7.62,0,0,1,4-2.36,7.54,7.54,0,0,1,8,2.87,8.6,8.6,0,0,1-1,10.64A7.57,7.57,0,0,1,68.84,76a9.12,9.12,0,0,1-2.2-3.87H50.7a.9.9,0,0,0-.33,0c-.13.06-.31.14-.35.26a9,9,0,0,1-4.17,4.9,6.6,6.6,0,0,1-5.22.73A8.24,8.24,0,0,1,36,65.64a3,3,0,0,0,.4-2.6c-1.25-5.2-2.46-10.4-3.69-15.6Q30.54,38.23,28.39,29c-.09-.39-.26-.49-.64-.49-3.13,0-6.26,0-9.39,0l-1.73,0A1.72,1.72,0,0,1,15,27.53ZM42.34,73.25a3,3,0,1,0-2.93-3A3,3,0,0,0,42.34,73.25Zm29.13-3a2.94,2.94,0,0,0,2.9,2.93,2.92,2.92,0,0,0,0-5.84A2.94,2.94,0,0,0,71.47,70.29Z"/></g></g></g></svg>