<svg xmlns="http://www.w3.org/2000/svg" viewBox="0 0 100 100"><defs><style>.cls-1{fill:none;}.cls-2{fill:#fff;}</style></defs><title>ac</title><g id="Layer_2" data-name="Layer 2"><g id="Layer_1-2" data-name="Layer 1"><rect class="cls-1" width="100" height="100"/><g id="dufXaO.tif"><path class="cls-2" d="M52.54,74.66c0,.45,0,.72,0,1,0,2.23,0,4.46,0,6.69a2.51,2.51,0,0,1-4.95.73,3.89,3.89,0,0,1-.08-1c0-2.38,0-4.75,0-7.13a1.31,1.31,0,0,0-.09-.26c-1.61.92-3.2,1.84-4.8,2.73a4.21,4.21,0,0,1-1.28.53,2.43,2.43,0,0,1-2.8-1.59,2.4,2.4,0,0,1,1.13-3q3.49-2,7-4A1.41,1.41,0,0,0,47.51,68c0-4.17,0-8.33,0-12.5,0-.32,0-.64,0-1.08-.31.15-.54.25-.76.37C43,56.9,39.28,59.07,35.53,61.2a1.22,1.22,0,0,0-.69,1.26q.06,4,.06,8a2.49,2.49,0,1,1-5,0c0-1.93,0-3.87,0-6-.33.16-.56.25-.76.37l-5.79,3.34A2.49,2.49,0,1,1,20.87,64l6.58-3.8c-1.77-1-3.49-1.94-5.12-3a3.74,3.74,0,0,1-1.39-1.69,2.15,2.15,0,0,1,.88-2.56,2.4,2.4,0,0,1,2.81-.11c2.36,1.36,4.73,2.71,7.07,4.1a1.22,1.22,0,0,0,1.42,0c3.67-2.15,7.36-4.26,11-6.38.25-.14.48-.31.81-.52l-1.43-.84c-3.48-2-7-4-10.42-6a1.28,1.28,0,0,0-1.51,0c-2.31,1.39-4.65,2.74-7,4.09a2.42,2.42,0,0,1-2.81-.11,2.13,2.13,0,0,1-.89-2.48,3.63,3.63,0,0,1,1.33-1.73c1.61-1.06,3.32-2,5.13-3-.34-.22-.59-.39-.84-.54-1.88-1.09-3.76-2.16-5.64-3.25a2.5,2.5,0,1,1,2.5-4.28l6.45,3.72c0-.42.06-.72.06-1,0-1.7,0-3.4,0-5.1a2.42,2.42,0,0,1,1.87-2.46,2.33,2.33,0,0,1,2.71,1.13,4.28,4.28,0,0,1,.37,1.77c0,2.61,0,5.22,0,7.83a1.34,1.34,0,0,0,.45,1c4,2.33,8,4.62,12,7a7,7,0,0,0,.08-.71c0-4.37,0-8.74,0-13.11a1.07,1.07,0,0,0-.64-1.09q-3.6-2-7.17-4.09a2.51,2.51,0,0,1-1.31-2.57A2.41,2.41,0,0,1,40.56,22a3.39,3.39,0,0,1,1.74.41c1.7.9,3.36,1.88,5.19,2.92,0-1.16,0-2.17,0-3.18,0-1.47,0-2.93,0-4.4a2.52,2.52,0,1,1,5,0c0,2.17,0,4.34,0,6.51,0,.32,0,.63,0,1.14l2.92-1.69c.79-.45,1.57-.92,2.36-1.35a2.5,2.5,0,1,1,2.49,4.34c-2.37,1.4-4.77,2.75-7.13,4.16a1.32,1.32,0,0,0-.61.9c0,4.49,0,9,0,13.47a3.48,3.48,0,0,0,.06.43c.3-.15.55-.27.8-.41,3.66-2.11,7.3-4.23,11-6.31a1.28,1.28,0,0,0,.73-1.31c0-2.64,0-5.28,0-7.92a2.49,2.49,0,1,1,4.95,0c0,1.93,0,3.86,0,5.92.37-.19.66-.32.93-.47,1.9-1.1,3.8-2.21,5.71-3.3A2.49,2.49,0,1,1,79.14,36c-1.9,1.11-3.81,2.2-5.71,3.3-.25.14-.48.3-.83.52,1.8,1.05,3.51,2,5.21,3.05a2.47,2.47,0,1,1-2.44,4.3c-2.29-1.3-4.58-2.62-6.83-4a1.6,1.6,0,0,0-1.9,0c-3.58,2.12-7.2,4.18-10.8,6.26L55,50c.27.18.47.33.69.46,3.73,2.16,7.47,4.3,11.18,6.48a1.14,1.14,0,0,0,1.35,0c2.29-1.36,4.61-2.68,6.92-4a2.51,2.51,0,0,1,3.66.77c.73,1.3.27,2.69-1.2,3.54l-5.1,2.95c2.26,1.31,4.41,2.56,6.57,3.79a2.59,2.59,0,0,1,1.46,2,2.48,2.48,0,0,1-3.7,2.46c-1.91-1.09-3.81-2.19-5.71-3.29l-1.1-.61c0,.71,0,1.27,0,1.84,0,1.44,0,2.88,0,4.31a2.47,2.47,0,1,1-4.94,0c0-2.76,0-5.52,0-8.27a1.32,1.32,0,0,0-.46-1c-3.86-2.27-7.76-4.5-11.64-6.74-.1-.06-.2-.09-.41-.18,0,.37-.05.67-.05,1,0,4.2,0,8.39,0,12.59a1.29,1.29,0,0,0,.75,1.31c2.3,1.29,4.57,2.62,6.85,3.95a2.51,2.51,0,0,1,1.16,3.56,2.54,2.54,0,0,1-3.67.79Z"/></g></g></g></svg>