<svg xmlns="http://www.w3.org/2000/svg" viewBox="0 0 100 100"><defs><style>.cls-1{fill:none;}.cls-2{fill:#fff;}</style></defs><title>dvoriste</title><g id="Layer_2" data-name="Layer 2"><g id="Layer_1-2" data-name="Layer 1"><rect class="cls-1" width="100" height="100"/><path class="cls-2" d="M46.7,71.12h9c0-.64,0-1.25,0-1.86A3.13,3.13,0,0,1,56.1,68c.85-1.46,1.76-2.89,2.65-4.32.57-.91,1.37-.92,2,0q1.44,2.25,2.81,4.53a1.67,1.67,0,0,1,.18.79c0,.7,0,1.39,0,2.13h9c0-.66,0-1.32,0-2a3.1,3.1,0,0,1,.37-1.26c.82-1.4,1.7-2.77,2.56-4.15.61-1,1.41-1,2,0,.93,1.47,1.85,2.94,2.73,4.43a2.33,2.33,0,0,1,.24,1c0,.63,0,1.27,0,2h2.56c.95,0,1.51.46,1.52,1.22s-.58,1.24-1.5,1.26l-2.35,0a.74.74,0,0,0-.18.06v4.17c1,0,1.93,0,2.87,0s1.69,1,1.25,1.73a1.31,1.31,0,0,1-1.24.67c-.87,0-1.75,0-2.73,0,0,1,0,2,0,3,0,1.27-.33,1.59-1.68,1.59H74.43c-1,0-1.5-.4-1.52-1.39s0-2.08,0-3.16h-9c0,1,0,1.92,0,2.87,0,1.43-.27,1.68-1.79,1.68H57.38c-1,0-1.42-.36-1.46-1.3s0-1.83,0-2.74c0-.15,0-.3,0-.5h-9c0,.91,0,1.82,0,2.73a4.18,4.18,0,0,1-.08.95,1,1,0,0,1-1.1.86H40.09A1.06,1.06,0,0,1,39,83.77c0-.81,0-1.62,0-2.42,0-.32,0-.63,0-1h-9c0,1,0,2,0,3s-.43,1.43-1.53,1.43h-5c-.87,0-1.33-.39-1.35-1.2,0-1.1,0-2.2,0-3.39H19.43c-1,0-1.53-.43-1.54-1.19s.56-1.25,1.49-1.27,1.7,0,2.61,0V73.47c-.89,0-1.79,0-2.68,0s-1.33-.41-1.4-1A1.28,1.28,0,0,1,19.3,71c.85,0,1.7,0,2.64,0a18.72,18.72,0,0,1,0-1.88,3.32,3.32,0,0,1,.37-1.33c.81-1.38,1.68-2.73,2.55-4.09.62-1,1.41-1,2,0,.91,1.45,1.83,2.9,2.71,4.37a2.35,2.35,0,0,1,.28,1c0,.65,0,1.31,0,2h8.83a12.2,12.2,0,0,1,0-1.69,4.59,4.59,0,0,1,.47-1.62c.79-1.39,1.66-2.74,2.52-4.1.59-.94,1.4-1,2,0q1.41,2.23,2.77,4.48a1.83,1.83,0,0,1,.2.85C46.72,69.7,46.7,70.38,46.7,71.12Zm9.12,6.64c0-1.32,0-2.57,0-3.82,0-.37-.24-.39-.55-.39H47.12a1.37,1.37,0,0,0-.28.06v4.14Zm7.94-4.18v4.16H72.7V73.58Zm-25,0H29.95v4.14H38.8Z"/><path class="cls-2" d="M79.63,42.42c0,.34,0,.56,0,.78q0,7.55,0,15.09c0,1.55-.38,1.93-1.91,1.93H68.2c0-.32,0-.57,0-.82,0-3.07,0-6.14,0-9.21a4.21,4.21,0,0,0-4.42-4.37,7.9,7.9,0,0,0-2,.22,4.13,4.13,0,0,0-3,4.09q0,4.67,0,9.35c0,.23,0,.45,0,.74H49c-1.17,0-1.64-.46-1.64-1.62q0-7.65,0-15.3c0-.27,0-.54,0-.94-.52.37-.92.67-1.34.93a1.5,1.5,0,0,1-1.79-.19,1.2,1.2,0,0,1-.31-1.5,1.81,1.81,0,0,1,.54-.6L62.08,28.36c1.15-.83,1.51-.82,2.65,0L82,40.79c.17.12.34.24.5.38a1.24,1.24,0,0,1,.32,1.77,1.43,1.43,0,0,1-1.91.4C80.51,43.08,80.12,42.77,79.63,42.42Z"/><path class="cls-2" d="M23.42,30a6.92,6.92,0,0,1,13.83.16,6.91,6.91,0,0,1-7,6.62A6.83,6.83,0,0,1,23.42,30Z"/><path class="cls-2" d="M74.68,32.08c-.94-.68-1.75-1.24-2.53-1.84a.66.66,0,0,1-.21-.46c0-1.22,0-2.44,0-3.66a1.37,1.37,0,0,1,1.41-1.39,1.34,1.34,0,0,1,1.32,1.39C74.69,28.05,74.68,30,74.68,32.08Z"/><path class="cls-2" d="M38.3,24.38l-1.88-1.93c.87-.94,1.82-2,2.85-3.05a1.41,1.41,0,0,1,1.94.17,1.3,1.3,0,0,1-.11,1.86Z"/><path class="cls-2" d="M40,31.41V28.7c1.5,0,3,0,4.54,0a1.27,1.27,0,0,1,1.06,1.4,1.25,1.25,0,0,1-1.11,1.29C43,31.44,41.49,31.41,40,31.41Z"/><path class="cls-2" d="M24.22,22.4l-2,2c-.88-.93-1.86-2-2.83-3a1.38,1.38,0,0,1,0-1.88,1.46,1.46,0,0,1,2,0C22.41,20.44,23.35,21.48,24.22,22.4Z"/><path class="cls-2" d="M20.61,28.7V31.4c-1.52,0-3,0-4.54,0A1.29,1.29,0,0,1,15,30a1.34,1.34,0,0,1,1.22-1.28C17.66,28.67,19.11,28.7,20.61,28.7Z"/><path class="cls-2" d="M36.43,37.68l1.82-2c1,1.05,2,2.09,3,3.17a1.29,1.29,0,0,1-.07,1.75,1.43,1.43,0,0,1-1.94.08C38.26,39.67,37.31,38.61,36.43,37.68Z"/><path class="cls-2" d="M29,20.57c0-1.46,0-2.9,0-4.34a1.23,1.23,0,0,1,1.34-1.11,1.32,1.32,0,0,1,1.36,1.27c0,1.38,0,2.76,0,4.18Z"/><path class="cls-2" d="M29,39.55h2.7c0,1.46,0,2.95,0,4.43A1.36,1.36,0,0,1,29,43.92C29,42.47,29,41,29,39.55Z"/><path class="cls-2" d="M22.41,35.82l1.92,2c-.95.9-2,2-3.14,3a1.33,1.33,0,0,1-1.67-2.07C20.49,37.72,21.49,36.74,22.41,35.82Z"/></g></g></svg>