<svg xmlns="http://www.w3.org/2000/svg" viewBox="0 0 100 100"><defs><style>.cls-1{fill:#fff;}.cls-2{fill:none;}</style></defs><title>peskiri</title><g id="Layer_2" data-name="Layer 2"><g id="Layer_1-2" data-name="Layer 1"><path class="cls-1" d="M80.32,47.57H20.46l-.24,0a7.07,7.07,0,0,1-5.42-7.23v-9c0-5.48,3.41-8,6.59-8H77.85a7.29,7.29,0,0,1,6.81,4.57,8.6,8.6,0,0,1,.32,1A7.1,7.1,0,0,1,83.66,35a7.39,7.39,0,0,1-5.85,2.86H23.47a2.43,2.43,0,0,1,0-4.85H77.8a2.56,2.56,0,0,0,2-1,2.26,2.26,0,0,0,.44-2,3.78,3.78,0,0,0-.14-.44,2.41,2.41,0,0,0-2.28-1.46H21.39c-1.68,0-1.73,3.1-1.73,3.13v9A2.3,2.3,0,0,0,21,42.72H80.32a2.43,2.43,0,0,1,0,4.85Z"/><path class="cls-1" d="M80.32,76.69H20.46l-.24,0a7.07,7.07,0,0,1-5.42-7.23v-9c0-5.48,3.41-8,6.59-8H77.85A7.29,7.29,0,0,1,84.66,57,8.6,8.6,0,0,1,85,58a7.1,7.1,0,0,1-1.33,6.11A7.39,7.39,0,0,1,77.8,67H23.47a2.43,2.43,0,0,1,0-4.85H77.8a2.56,2.56,0,0,0,2-1,2.26,2.26,0,0,0,.44-2,3.78,3.78,0,0,0-.14-.44,2.41,2.41,0,0,0-2.28-1.46H21.39c-1.68,0-1.73,3.1-1.73,3.13v9A2.3,2.3,0,0,0,21,71.84H80.32a2.43,2.43,0,0,1,0,4.85Z"/><rect class="cls-2" width="100" height="100"/></g></g></svg>