<svg xmlns="http://www.w3.org/2000/svg" viewBox="0 0 100 100"><defs><style>.cls-1{fill:none;}.cls-2{fill:#fff;}</style></defs><title>tenis</title><g id="Layer_2" data-name="Layer 2"><g id="Layer_1-2" data-name="Layer 1"><rect class="cls-1" width="100" height="100"/><g id="IRee7y.tif"><path class="cls-2" d="M34.48,68.66l.52.58c-.09.1-.17.21-.26.3Q28.29,76,21.83,82.44A3.51,3.51,0,1,1,17,77.39L27,67.31c1-1,2-2,3.07-3l.68.57c.88-1,1.79-2,2.6-3a33.77,33.77,0,0,0,7.26-18.28C40.9,40.33,41,37,42.24,34c3.92-9.9,10.89-16.4,21.44-18.55a16.94,16.94,0,0,1,15,3.61,15.52,15.52,0,0,1,5.48,11.14c.53,7.57-2.32,13.94-7.34,19.4a26.85,26.85,0,0,1-15.06,8.54c-2,.37-4,.46-6,.64a33.85,33.85,0,0,0-21.12,9.68A1.67,1.67,0,0,0,34.48,68.66ZM42.39,49.3a38.83,38.83,0,0,1-7.62,15.26A39.6,39.6,0,0,1,50,56.87,16.64,16.64,0,0,1,42.39,49.3Zm21.72,1.84L61.7,48.76,58.36,52l2.42,2.44Zm7.47-7.45,3.31-3.31L72.42,38l-3.26,3.27ZM48.22,35.29,45,38.57,47.32,41l3.31-3.3Zm7.48-7.6,2.39,2.43,3.29-3.31L59,24.43Zm-1,9.94L57.11,40l3.24-3.24L58,34.36Zm13.2-4.23L64.6,36.73,67,39.08l3.31-3.29Zm1.55,12.44L67,43.46l-3.19,3.19,2.38,2.43ZM53.9,47.55l2.44,2.39,3.19-3.2-2.39-2.41ZM74.58,35.82,77,38.26,80.24,35l-2.42-2.41ZM55.05,42.18l-2.38-2.45L49.41,43l2.41,2.41Zm7.63-3.32-3.32,3.32,2.29,2.29L65,41.16Zm-9.05-9-3.37,3.32,2.3,2.36,3.37-3.36Zm6.43,2.53,2.53,2.23,3.31-3.28-2.53-2.25ZM65.5,26.9l2.45,2.42,3.28-3.25L68.8,23.6Zm4.56,4.54,2.37,2.38,3.3-3.31-2.37-2.38ZM64.39,19.12,61,22.46l2.37,2.39,3.35-3.34ZM48.53,52.9c1,.54,2,1.11,3,1.65a.46.46,0,0,0,.42-.06c.81-.78,1.6-1.58,2.32-2.31l-2.47-2.51ZM75.4,26,78,28.57c.69-.74,1.43-1.53,2.15-2.34a.6.6,0,0,0,.13-.52c-.54-1-1.12-2-1.68-3ZM49.66,47.63l-2.48-2.69c-.78.8-1.54,1.56-2.28,2.35a.55.55,0,0,0-.12.48c.56,1,1.15,2,1.72,3ZM73.3,23.86l3.19-3.24c-.89-.5-1.85-1-2.82-1.56a.58.58,0,0,0-.53.05c-.8.76-1.58,1.54-2.32,2.28ZM77,42.41l-3.32,3.36,1.5,1.64c.73-1,1.46-1.87,2.14-2.83C78.16,43.36,78.14,43.35,77,42.41ZM50,26.13c-.76,1-1.49,1.89-2.16,2.83-.88,1.24-.86,1.25.3,2.22h-.06l3.42-3.43ZM52,24l1.49,1.68L57,22.24c-.27-.22-.58-.5-.93-.73a.53.53,0,0,0-.47-.05C54.34,22.34,53.1,23.24,52,24Zm16.24,27.1,1,1.2,3.85-2.9-1.52-1.67Zm13.21-19,.16,0L81.31,29,79.8,30.42ZM68.61,19.39,70.27,18l-3.12-.2ZM56.38,54.17l-1.71,1.42,3.23.2ZM43.56,41.31l.21,3.21,1.4-1.41Zm16.52-22L60,19.21l-1.62.67.55.5ZM46.24,33.16l-.59-.52L45,34.21l.1.06ZM78.9,40.45l.53.48.73-1.72ZM65,54.24l.07.11,1.62-.65-.53-.49Z"/><path class="cls-2" d="M63.37,85a8.65,8.65,0,1,1,8.68-8.63A8.67,8.67,0,0,1,63.37,85Z"/></g></g></g></svg>