<svg xmlns="http://www.w3.org/2000/svg" viewBox="0 0 100 100"><defs><style>.cls-1{fill:none;}.cls-2{fill:#fff;}</style></defs><title>fen</title><g id="Layer_2" data-name="Layer 2"><g id="Layer_1-2" data-name="Layer 1"><rect class="cls-1" width="100" height="100"/><g id="J9H8D5.tif"><path class="cls-2" d="M15,35.66c0-.42.08-.83.13-1.25a18.33,18.33,0,0,1,1.54-5.57,18.89,18.89,0,0,1,13-10.64,17.35,17.35,0,0,1,4.93-.43,19.08,19.08,0,0,1,2.83.37c2,.43,4,.93,6,1.42l14.32,3.53,10.56,2.6.51.12v.27q0,10.5,0,21c0,.22-.07.28-.27.33l-11.1,2.71L46.26,52.87c-.88.21-1.78.39-2.64.65a3.61,3.61,0,0,0-1.06.63,10.44,10.44,0,0,0-3.65,5.38c-.41,1.29-.7,2.62-1.05,3.94-.68,2.55-1.37,5.09-2,7.64A18.64,18.64,0,0,0,35.17,75a5.61,5.61,0,0,0,.52,3,6.43,6.43,0,0,0,.64,1,2,2,0,0,1,.22,2.15,1.88,1.88,0,0,1-1.41,1c-.26.06-.52.09-.78.14h-1l-.17,0c-.72-.1-1.44-.19-2.15-.3-1.69-.27-3.37-.57-5.05-.81a8.32,8.32,0,0,1-3-1,4.47,4.47,0,0,1-2.31-3.24,9.24,9.24,0,0,1,.13-3.39,74.31,74.31,0,0,0,1.11-7.41q.28-2.84.43-5.69a20.42,20.42,0,0,0,0-3.35,23.71,23.71,0,0,0-1.94-7,3.28,3.28,0,0,0-.45-.86A19.75,19.75,0,0,1,16.58,44a17.91,17.91,0,0,1-1.44-5.28c0-.42-.09-.85-.13-1.27Zm18.82,9.08a8.16,8.16,0,1,0-8.13-8.21A8.2,8.2,0,0,0,33.82,44.75Z"/><path class="cls-2" d="M73.36,42a10.74,10.74,0,0,1,4.91,1.16c.41.23.81.48,1.21.74a4.85,4.85,0,0,0,2.35.72c.63,0,1.26.06,1.88.08a1.34,1.34,0,0,1,.21,2.65,4.43,4.43,0,0,1-.86,0,10,10,0,0,1-4.89-1.23c-.34-.2-.67-.41-1-.62a5.11,5.11,0,0,0-2.56-.76c-.65,0-1.3,0-2,0a1.36,1.36,0,0,1-1.36-1.38A1.33,1.33,0,0,1,72.65,42Z"/><path class="cls-2" d="M73.32,25.82a11.12,11.12,0,0,1,4.18.8,11.4,11.4,0,0,1,1.74,1,5.55,5.55,0,0,0,2.86.89c.51,0,1,0,1.53,0A1.34,1.34,0,0,1,85,29.83a1.31,1.31,0,0,1-1.33,1.36A21.91,21.91,0,0,1,81.24,31a8.4,8.4,0,0,1-3.79-1.51,5.58,5.58,0,0,0-3.07-1c-.58,0-1.15,0-1.73,0a1.35,1.35,0,0,1-1.34-1.34,1.33,1.33,0,0,1,1.31-1.37Z"/><path class="cls-2" d="M73.32,33.89a11,11,0,0,1,4.38.89,16.35,16.35,0,0,1,1.75,1,4.86,4.86,0,0,0,2.25.72c.66.05,1.33.07,2,.09A1.35,1.35,0,0,1,85,37.84a1.3,1.3,0,0,1-1.19,1.42,16.24,16.24,0,0,1-2.1-.1A8.7,8.7,0,0,1,78.06,38c-.44-.26-.86-.55-1.3-.8a5.25,5.25,0,0,0-2.25-.54c-.62,0-1.24,0-1.86,0a1.35,1.35,0,0,1-1.34-1.36,1.33,1.33,0,0,1,1.31-1.34Z"/></g></g></g></svg>