<svg xmlns="http://www.w3.org/2000/svg" viewBox="0 0 100 100"><defs><style>.cls-1{fill:none;}.cls-2{fill:#fff;}</style></defs><title>stoni-tenis</title><g id="Layer_2" data-name="Layer 2"><g id="Layer_1-2" data-name="Layer 1"><rect class="cls-1" width="100" height="100"/><path class="cls-2" d="M85,39.37A25.07,25.07,0,0,1,81.75,51,38.36,38.36,0,0,1,67,66.24a21.74,21.74,0,0,1-7.7,2.81A13.85,13.85,0,0,1,54.85,69a1.14,1.14,0,0,1-.56-.32Q42.82,57.2,31.37,45.73A1.52,1.52,0,0,1,31,45a15.2,15.2,0,0,1,.94-8.09,32.22,32.22,0,0,1,6.57-10.39A36.57,36.57,0,0,1,51.59,17a24.45,24.45,0,0,1,10-2,19.69,19.69,0,0,1,12.94,5.1,40.13,40.13,0,0,1,7,7.44A20.3,20.3,0,0,1,85,39.37Z"/><path class="cls-2" d="M49.65,67.58c-.67-.2-1.35-.41-2-.6a11.69,11.69,0,0,0-4.86-.5,10.81,10.81,0,0,0-4.24,1.72,35,35,0,0,0-6.35,5.37c-3.14,3.28-6.2,6.64-9.3,10a9.8,9.8,0,0,1-.88.89,1.92,1.92,0,0,1-2.59.11,7.57,7.57,0,0,1-1-.81c-.74-.72-1.47-1.45-2.19-2.18a7.9,7.9,0,0,1-.73-.85A1.91,1.91,0,0,1,15.63,78,16.81,16.81,0,0,1,17,76.7,128.79,128.79,0,0,0,28.34,65.93a45.61,45.61,0,0,0,3.23-4.12A10.23,10.23,0,0,0,33,52.34c-.21-.66-.39-1.34-.59-2Z"/><path class="cls-2" d="M40.29,78.54a5.12,5.12,0,1,1,5.11,5.09A5.11,5.11,0,0,1,40.29,78.54Z"/></g></g></svg>