<svg xmlns="http://www.w3.org/2000/svg" viewBox="0 0 100 100"><defs><style>.cls-1{fill:none;}.cls-2{fill:#fff;}</style></defs><title>do prodavnice</title><g id="Layer_2" data-name="Layer 2"><g id="Layer_1-2" data-name="Layer 1"><rect class="cls-1" width="100" height="100"/><g id="qeGsuM.tif"><path class="cls-2" d="M28.38,36.12V33.29a1.3,1.3,0,0,1,1.35-.79c2.69,0,5.38,0,8.08,0a1.94,1.94,0,0,1,2,1.65q.37,1.59.68,3.2c.07.34.15.49.55.49q14.12,0,28.23,0a2.15,2.15,0,0,1,2.31,1.25v.62a.38.38,0,0,0-.06.08l-2,6.06q-.87,2.62-1.74,5.24-.74,2.21-1.5,4.41a1.38,1.38,0,0,1-1.26,1c-.32,0-.64,0-1,0H45.31c0,.27.1.49.12.71s.11.25.29.26a4,4,0,0,1,3,1.67.56.56,0,0,0,.39.2q6,0,12,0a.61.61,0,0,0,.41-.17A4.71,4.71,0,0,1,64,57.78a4.66,4.66,0,0,1,4.91,1.77,5.31,5.31,0,0,1-.62,6.57,4.68,4.68,0,0,1-6.68-.07,5.63,5.63,0,0,1-1.36-2.39H50.43a.56.56,0,0,0-.21,0c-.08,0-.19.09-.22.16a5.55,5.55,0,0,1-2.58,3,4.08,4.08,0,0,1-3.22.45,5.09,5.09,0,0,1-2.86-7.65,1.86,1.86,0,0,0,.25-1.6c-.77-3.21-1.52-6.42-2.28-9.64Q38,42.73,36.65,37c-.06-.24-.16-.3-.4-.3h-5.8l-1.07,0A1.06,1.06,0,0,1,28.38,36.12ZM45.27,64.36a1.83,1.83,0,1,0-1.81-1.83A1.84,1.84,0,0,0,45.27,64.36Zm18-1.83a1.82,1.82,0,0,0,1.79,1.81,1.8,1.8,0,0,0,0-3.61A1.82,1.82,0,0,0,63.26,62.53Z"/></g></g></g></svg>