<svg xmlns="http://www.w3.org/2000/svg" viewBox="0 0 100 100"><defs><style>.cls-1{fill:none;}.cls-2{fill:#fff;}</style></defs><title>restoran</title><g id="Layer_2" data-name="Layer 2"><g id="Layer_1-2" data-name="Layer 1"><rect class="cls-1" width="100" height="100"/><path class="cls-2" d="M68.46,26.83c0-2.35-.05-4.7-.19-7A5.24,5.24,0,0,0,63.63,15C60,14.64,57.28,17,57.26,20.8c-.07,11.79-.08,23.58-.11,35.36,0,.35.07.69.12,1.17h3.79c0,2.75,0,5.26,0,7.76,0,5.37,0,10.75,0,16.12a3.76,3.76,0,0,0,3.67,3.71,3.38,3.38,0,0,0,3.57-3.49c.09-1.51.14-3,.14-4.53Q68.47,51.87,68.46,26.83Z"/><path class="cls-2" d="M47.29,15c-1.12,0-1.27.8-1.27,1.74C46,20.83,46,24.9,46,29c0,1,0,1.94,0,2.91H43.63c0-.65,0-1.22,0-1.78q0-6.65,0-13.31c0-.87,0-1.79-1.18-1.78s-1.14.91-1.15,1.7c0,3.65,0,7.31,0,11,0,1.39,0,2.79,0,4.18H38.88c0-.52,0-.93,0-1.34,0-4.7,0-9.39-.11-14.09a1.81,1.81,0,0,0-1-1.36c-.83-.2-1.32.39-1.31,1.3s0,1.77,0,2.66c0,4.27,0,8.53,0,12.87H34.13c0-.79,0-1.41,0-2q0-6.57,0-13.15c0-.91-.19-1.74-1.33-1.71s-1.23.71-1.22,1.62c0,6.94,0,13.88,0,20.82,0,2.7,1.26,4.19,3.91,4.92.25.07.48.17.83.29v1.71c0,6.89,0,13.78,0,20.66q0,8.22.21,16.43A3.38,3.38,0,0,0,39.94,85a3.41,3.41,0,0,0,3.75-3.34c.09-.93.09-1.88.09-2.81q0-17.22,0-34.44c0-.57,0-1.13,0-1.69a5.94,5.94,0,0,1,.66-.29c2.9-.86,4.06-2.29,4.07-5.29,0-6.78,0-13.57,0-20.35C48.51,15.91,48.48,15,47.29,15Z"/></g></g></svg>