<svg xmlns="http://www.w3.org/2000/svg" viewBox="0 0 100 100"><defs><style>.cls-1{fill:none;}.cls-2{fill:#fff;}</style></defs><title>do mora</title><g id="Layer_2" data-name="Layer 2"><g id="Layer_1-2" data-name="Layer 1"><rect class="cls-1" width="100" height="100"/><path class="cls-2" d="M17.17,63.63v-1c.05-.09.11-.17.15-.27a2.14,2.14,0,0,1,3.45-.83,4.51,4.51,0,0,0,3,1.24,4.68,4.68,0,0,0,3.12-1.44,8.14,8.14,0,0,1,7.56-1.93,8,8,0,0,1,3.83,2.09,4.15,4.15,0,0,0,3.49,1.24,5.07,5.07,0,0,0,2.71-1.47,8.13,8.13,0,0,1,7.4-1.88,7.84,7.84,0,0,1,3.8,2,4.31,4.31,0,0,0,3.46,1.36,4.7,4.7,0,0,0,2.74-1.39,8.17,8.17,0,0,1,7.74-1.94,7.76,7.76,0,0,1,3.61,2,4.25,4.25,0,0,0,3.46,1.33,4.65,4.65,0,0,0,2.55-1.22,2.14,2.14,0,0,1,3.45.83c0,.09.1.18.15.27v1a5.74,5.74,0,0,1-.73,1.1,8.18,8.18,0,0,1-7.74,2.14,8.78,8.78,0,0,1-4.14-2.31,3.89,3.89,0,0,0-2.8-1.06,4.58,4.58,0,0,0-3,1.43,8.33,8.33,0,0,1-11.21,0,7.52,7.52,0,0,0-1.1-.88c-1.68-1-3.44-.73-5.14.79a8.32,8.32,0,0,1-11.4,0c-2-1.83-4-1.84-6.09,0A8.1,8.1,0,0,1,22.28,67,6.72,6.72,0,0,1,17.17,63.63Z"/><path class="cls-2" d="M17.17,50.5v-1c.05-.09.11-.17.15-.27a2.14,2.14,0,0,1,3.45-.83,4.51,4.51,0,0,0,3,1.24,4.68,4.68,0,0,0,3.12-1.44,8.14,8.14,0,0,1,7.56-1.93,8,8,0,0,1,3.83,2.09,4.15,4.15,0,0,0,3.49,1.24,5.07,5.07,0,0,0,2.71-1.47,8.13,8.13,0,0,1,7.4-1.88,7.84,7.84,0,0,1,3.8,2,4.31,4.31,0,0,0,3.46,1.36,4.7,4.7,0,0,0,2.74-1.39,8.17,8.17,0,0,1,7.74-1.94,7.76,7.76,0,0,1,3.61,2,4.25,4.25,0,0,0,3.46,1.33,4.65,4.65,0,0,0,2.55-1.22,2.14,2.14,0,0,1,3.45.83c0,.09.1.18.15.27v1a5.74,5.74,0,0,1-.73,1.1,8.18,8.18,0,0,1-7.74,2.14,8.78,8.78,0,0,1-4.14-2.31,3.89,3.89,0,0,0-2.8-1.06,4.58,4.58,0,0,0-3,1.43,8.33,8.33,0,0,1-11.21,0,7.52,7.52,0,0,0-1.1-.88c-1.68-1-3.44-.73-5.14.79a8.32,8.32,0,0,1-11.4,0c-2-1.83-4-1.84-6.09,0a8.1,8.1,0,0,1-7.16,2.11A6.72,6.72,0,0,1,17.17,50.5Z"/><path class="cls-2" d="M17.17,37.37v-1c.05-.09.11-.17.15-.27a2.14,2.14,0,0,1,3.45-.83,4.51,4.51,0,0,0,3,1.24,4.68,4.68,0,0,0,3.12-1.44,8.14,8.14,0,0,1,7.56-1.93,8,8,0,0,1,3.83,2.09,4.15,4.15,0,0,0,3.49,1.24A5.07,5.07,0,0,0,44.48,35a8.13,8.13,0,0,1,7.4-1.88,7.84,7.84,0,0,1,3.8,2,4.31,4.31,0,0,0,3.46,1.36,4.7,4.7,0,0,0,2.74-1.39,8.17,8.17,0,0,1,7.74-1.94,7.76,7.76,0,0,1,3.61,2,4.25,4.25,0,0,0,3.46,1.33,4.65,4.65,0,0,0,2.55-1.22,2.14,2.14,0,0,1,3.45.83c0,.09.1.18.15.27v1a5.74,5.74,0,0,1-.73,1.1,8.18,8.18,0,0,1-7.74,2.14,8.78,8.78,0,0,1-4.14-2.31,3.89,3.89,0,0,0-2.8-1.06,4.58,4.58,0,0,0-3,1.43,8.33,8.33,0,0,1-11.21,0,7.52,7.52,0,0,0-1.1-.88c-1.68-1-3.44-.73-5.14.79a8.32,8.32,0,0,1-11.4,0c-2-1.83-4-1.84-6.09,0a8.1,8.1,0,0,1-7.16,2.11A6.72,6.72,0,0,1,17.17,37.37Z"/></g></g></svg>