<svg xmlns="http://www.w3.org/2000/svg" viewBox="0 0 100 100"><defs><style>.cls-1{fill:#fff;}.cls-2{fill:none;}</style></defs><title>kolevka</title><g id="Layer_2" data-name="Layer 2"><g id="Layer_1-2" data-name="Layer 1"><g id="oU4d9q.tif"><path class="cls-1" d="M15,44.11c1-1.15,2-2.72,3.76-2a6.63,6.63,0,0,1,2.58,2.56c.38.56.22,1.49.31,2.36H78.29a2.92,2.92,0,0,0,.17-.67c-.06-1.89.43-3.5,2.38-4.22s3,.75,4.16,2V78.72c-1.23,1.2-2.39,2.7-4.43,1.76s-2.19-2.7-2.1-4.6c.05-1.13,0-2.26,0-3.37h-57a21.13,21.13,0,0,1-.09,4.89,5,5,0,0,1-2.21,3c-.79.38-2.19-.42-3.28-.81-.37-.13-.61-.6-.91-.91ZM36.28,63.18v-12H30v12Zm2.14-.09h6.29V51.14H38.42Zm16.86-12v12h6.25v-12Zm14.76,0H63.76V63.09H70Zm-48.4,0v12H27.8v-12Zm25.24,12H53v-12H46.88Zm31.5-12H72.23v12h6.16Z"/><path class="cls-1" d="M37.49,23.87l-.7-2.64H28.11l-.28-2H72.17l-.22,1.88H64.29c0,1.23.08,2.3,0,3.36s-.4,2.11-.61,3.16c-.24-1.08-.57-2.16-.71-3.26a25.75,25.75,0,0,1,0-3H50.68c0,2.92,0,5.82,0,8.71,0,.5-.64,1.2-.72,1.49a4.41,4.41,0,0,1-.58-1.43c-.06-2.9,0-5.8,0-8.8H38.44"/><path class="cls-1" d="M43.73,28.55c-2.63,1.88-3.21,4.1-2.28,7-2.44-1.57-4.72-2.14-7.17.08.6-2.85.34-5.23-2.39-6.91,2.93-.23,5-1.27,5.82-4.34C38.87,27,40.43,28.83,43.73,28.55Z"/><path class="cls-1" d="M69.58,32.52c-2.61,1.76-3.11,4-2.23,6.88-2.45-1.63-4.73-2.07-7.13.08.46-2.81.59-5.32-2.51-6.88,3.08-.21,5.09-1.36,6-4.35C64.74,31,66.45,32.56,69.58,32.52Z"/><path class="cls-1" d="M46.55,43.28c.64-2.82.58-5.15-2.42-6.69,3-.4,5.12-1.42,6-4.47,1,2.87,2.83,4.27,5.91,4.25a5.62,5.62,0,0,0-2.28,6.94C51.25,41.53,49,41.37,46.55,43.28Z"/></g><rect class="cls-2" width="100" height="100"/></g></g></svg>