<svg xmlns="http://www.w3.org/2000/svg" viewBox="0 0 100 100"><defs><style>.cls-1{fill:#fff;}.cls-2{fill:none;}</style></defs><title>balkon</title><g id="Layer_2" data-name="Layer 2"><g id="Layer_1-2" data-name="Layer 1"><path class="cls-1" d="M73.75,22.84a44.1,44.1,0,0,0-4.25-4c-.12-.12-.26-.22-.38-.33.91-1.92.93-2.46.1-2.92s-1.28-.15-2.4,1.47c-1.63-.51-3.22-1.12-4.86-1.51A17.06,17.06,0,0,0,43.42,23c-.71,1.12-.55,1.74.63,2.42L56.5,32.59l.81.49-3.18,5.35c-1.75,3-3.51,5.9-5.25,8.86H29.42V15H22.5V85h6.92V78.19H69.15V47.29H51.92L59.6,34.38l11,6.32c.79.45,1.57.92,2.37,1.37,1.13.64,1.74.46,2.38-.67A16.33,16.33,0,0,0,73.75,22.84ZM55.49,74.18H52.12V51.31h3.37ZM57.8,51.31h3.37V74.18H57.8Zm-8,22.87H46.45V51.31h3.37Zm-9-22.87h3.37V74.18H40.77ZM38.46,74.18H35.09V51.31h3.37Zm-9-22.87h3.37V74.18H29.42ZM66.84,74.18H63.47V51.31h3.37ZM46.23,23.68c3.2-5,10.2-7.17,15.82-5.43-3.91,2.34-6.53,5.73-8.95,9.38ZM64.06,33.94l-8.67-5a26.4,26.4,0,0,1,6.26-7.23,14.85,14.85,0,0,1,3.66-1.82,1.52,1.52,0,0,1,2,1.07,6,6,0,0,1,.38,2c0,3.95-1.57,7.45-3.46,10.84C64.23,33.89,64.15,33.9,64.06,33.94Zm9.25,5.34-6.83-3.95c2.08-3.88,3.73-7.77,3.93-12.22C75.29,27.58,75.95,35,73.31,39.28Z"/><rect class="cls-2" width="100" height="100"/></g></g></svg>