<svg xmlns="http://www.w3.org/2000/svg" viewBox="0 0 100 100"><defs><style>.cls-1{fill:none;}.cls-2{fill:#fff;}</style></defs><title>bar</title><g id="Layer_2" data-name="Layer 2"><g id="Layer_1-2" data-name="Layer 1"><rect class="cls-1" width="100" height="100"/><g id="Gq1znB.tif"><path class="cls-2" d="M56.82,26H67.54a1.83,1.83,0,0,1,1.62,2.86c-.42.72-.9,1.4-1.36,2.09Q58.42,45.1,49.06,59.26a3,3,0,0,0-.49,1.55c0,6.54,0,13.07,0,19.61,0,.26,0,.52,0,.86H59.46c1.33,0,2.19.71,2.2,1.82S60.8,85,59.43,85H33.85a1.93,1.93,0,0,1-2.13-1.83,1.89,1.89,0,0,1,2.14-1.89H44.77c0-.33,0-.57,0-.8,0-6.62,0-13.23,0-19.85a2.43,2.43,0,0,0-.39-1.26q-9.91-15-19.83-30A4.11,4.11,0,0,1,24,27.51c-.09-1.09.37-1.51,1.47-1.52h9.2c5.7,0,11.4,0,17.11,0a1.17,1.17,0,0,0,1.19-.71c1.67-3,3.39-6,5.07-9.08A2.18,2.18,0,0,1,60.11,15q6.9,0,13.8,0a1.93,1.93,0,0,1,2,1.15,1.77,1.77,0,0,1-.31,2,2.16,2.16,0,0,1-1.84.63c-4,0-7.91,0-11.86,0a1.39,1.39,0,0,0-1.45.84C59.28,21.66,58.09,23.73,56.82,26ZM27.48,28.54a3.09,3.09,0,0,0,.15.34c1.21,2,2.41,4,3.66,6a1.23,1.23,0,0,0,.91.44c4.81,0,9.62,0,14.42,0a1,1,0,0,0,1.05-.65c.92-1.7,1.88-3.38,2.82-5.06l.58-1.07Zm24.16,6.7a3.69,3.69,0,0,0,.42.06c3,0,6,0,8.94,0a1.16,1.16,0,0,0,.78-.51C63,32.91,64.17,31,65.35,29.12a6.89,6.89,0,0,0,.3-.63c-3.38,0-6.66,0-9.93,0-.21,0-.48.3-.61.52-1,1.65-1.87,3.32-2.8,5Z"/></g></g></g></svg>