<svg xmlns="http://www.w3.org/2000/svg" viewBox="0 0 100 100"><defs><style>.cls-1{fill:none;}.cls-2{fill:#fff;}</style></defs><title>ves-masina</title><g id="Layer_2" data-name="Layer 2"><g id="Layer_1-2" data-name="Layer 1"><rect class="cls-1" width="100" height="100"/><g id="_5J0Xhb.tif" data-name="5J0Xhb.tif"><path class="cls-2" d="M79.63,23V77l0,.26a11.94,11.94,0,0,1-.2,1.42,7.94,7.94,0,0,1-6.27,6.13c-.39.09-.79.12-1.18.18H28l-.92-.13a8.06,8.06,0,0,1-6.55-6.35c-.08-.38-.12-.77-.18-1.16q0-27.36,0-54.72a1.35,1.35,0,0,0,0-.19A7.66,7.66,0,0,1,21.52,19a7.92,7.92,0,0,1,5.08-3.74c.42-.1.85-.15,1.28-.23H72.12c.43.07.86.13,1.28.23a8.06,8.06,0,0,1,6,6.3C79.53,22,79.57,22.5,79.63,23ZM69,52.69a19,19,0,1,0-19,19A19,19,0,0,0,69,52.69ZM56.72,28.8a4.37,4.37,0,1,0-4.37-4.43A4.4,4.4,0,0,0,56.72,28.8Zm13.46,0a4.37,4.37,0,1,0-4.37-4.4A4.4,4.4,0,0,0,70.18,28.8Z"/><path class="cls-2" d="M50,68.34A15.65,15.65,0,1,1,65.64,53,15.65,15.65,0,0,1,50,68.34ZM37.14,51.65l.89-.41a6.43,6.43,0,0,1,4.28-.48c.93.24,1.83.55,2.74.87a15.15,15.15,0,0,0,4.06.94,14,14,0,0,0,5-.6c1.15-.35,2.29-.73,3.45-1.05a6.51,6.51,0,0,1,4.12.16c.38.14.74.31,1.12.47a12.88,12.88,0,0,0-25.69.1Z"/></g></g></g></svg>