<svg xmlns="http://www.w3.org/2000/svg" viewBox="0 0 100 100"><defs><style>.cls-1{fill:none;}.cls-2{fill:#fff;}</style></defs><title>minibar</title><g id="Layer_2" data-name="Layer 2"><g id="Layer_1-2" data-name="Layer 1"><rect class="cls-1" width="100" height="100"/><g id="r34EFt.tif"><path class="cls-2" d="M69.69,78.16A7.43,7.43,0,0,1,67,82.73a6.72,6.72,0,0,1-4.21,1.41q-20.44,0-40.88,0a6.76,6.76,0,0,1-6.85-7c0-4.55,0-9.1,0-13.65Q15,43.28,15,23a6.63,6.63,0,0,1,4.06-6.54,7,7,0,0,1,2.79-.59q20.44-.06,40.88,0a6.76,6.76,0,0,1,6.78,5.62c0,.13,0,.25.1.57.12-.52.19-.85.28-1.18a6.81,6.81,0,0,1,13.37,1.87c0,4.27,0,8.53,0,12.8v.7c1.46.51,1.71.86,1.72,2.42q0,4.59,0,9.19c0,1.33-.37,1.81-1.72,2.18,0,.27,0,.57,0,.87q0,13.09,0,26.18a6.81,6.81,0,0,1-13.44,1.75C69.78,78.62,69.74,78.39,69.69,78.16ZM16.67,50q0,11.42,0,22.84a8.57,8.57,0,0,0,8.74,8.79q16.9,0,33.8,0a9.5,9.5,0,0,0,2.71-.4,8.53,8.53,0,0,0,6-8.37q0-11.74,0-23.49,0-11,0-22a10.43,10.43,0,0,0-.16-2,8.55,8.55,0,0,0-8.71-7H25.56a8.6,8.6,0,0,0-8.89,8.92Q16.67,38.65,16.67,50Z"/><path class="cls-2" d="M20.13,41.52H64.45c0,.27,0,.53,0,.78q0,15.16,0,30.32c0,3.47-2.09,5.53-5.57,5.53H25.59a5.1,5.1,0,0,1-5.45-5.46q0-15.16,0-30.32ZM52.5,56.76c-2.16.24-3.34,1.27-3.36,3.06q-.07,5.54,0,11.09a3,3,0,0,0,3.13,3q2,0,4,0a3,3,0,0,0,3.14-3q.07-5.54,0-11.09a3,3,0,0,0-3-3l-.32,0v-5c.34,0,.63,0,.9-.08a.81.81,0,0,0,.71-.89.77.77,0,0,0-.78-.82c-1.77,0-3.54,0-5.31,0a.77.77,0,0,0-.74.91.81.81,0,0,0,.79.81c.27,0,.55,0,.84,0Zm-8.42-5c.32,0,.56,0,.79,0,.48-.05.85-.27.87-.79a.79.79,0,0,0-.79-.93c-1.75,0-3.5,0-5.25,0a.77.77,0,0,0-.8.86.81.81,0,0,0,.81.86c.27,0,.55,0,.82,0v5c-2.33.21-3.35,1.31-3.36,3.57q0,5.15,0,10.31a3.09,3.09,0,0,0,3.3,3.27h3.68a3.1,3.1,0,0,0,3.34-3.36c0-2,0-4,0-6,0-1.55,0-3.11,0-4.66a3,3,0,0,0-3-3.05l-.34,0Zm-15.48,5-.51,0a3,3,0,0,0-2.86,3q0,5.54,0,11.08a3,3,0,0,0,3.11,3c1.38,0,2.75,0,4.13,0a3,3,0,0,0,3-2.91q.07-5.67,0-11.35a2.75,2.75,0,0,0-1.82-2.58,9.74,9.74,0,0,0-1.52-.38v-5c.3,0,.56,0,.82,0a.82.82,0,0,0,.83-.9A.79.79,0,0,0,33,50c-1.73,0-3.45,0-5.18,0a.8.8,0,0,0-.83.84.82.82,0,0,0,.85.89c.25,0,.51,0,.8,0Z"/><path class="cls-2" d="M64.45,38H20.13c0-.26,0-.5,0-.73q0-5,0-10a5.1,5.1,0,0,1,5.41-5.44H59.08a5.07,5.07,0,0,1,5.42,5.36c0,3.41,0,6.83,0,10.24C64.5,37.62,64.47,37.79,64.45,38Z"/></g></g></g></svg>