<svg xmlns="http://www.w3.org/2000/svg" viewBox="0 0 100 100"><defs><style>.cls-1{fill:none;}.cls-2{fill:#fff;}</style></defs><title>rostilj</title><g id="Layer_2" data-name="Layer 2"><g id="Layer_1-2" data-name="Layer 1"><rect class="cls-1" width="100" height="100"/><path class="cls-2" d="M41.91,85l-2.14-1L45.4,66.72C40,63,37,57.94,36.82,51.19H73.67a13.38,13.38,0,0,1-1.86,8,35.64,35.64,0,0,1-5.11,6.3A2.15,2.15,0,0,0,66,68.11c1.78,5.27,3.47,10.57,5.21,15.9l-2,1h-.7c-.54-1.83-1.13-3.64-1.6-5.49a1.47,1.47,0,0,0-1.71-1.27q-9.6.06-19.19,0a1.59,1.59,0,0,0-1.86,1.32c-.53,1.84-1.21,3.63-1.82,5.44Zm3.33-8.82H65.73L63,67.85A18.89,18.89,0,0,1,47.9,68Z"/><path class="cls-2" d="M49.24,15.17c2.54.41,4.88,1.63,7.56,2.53L37.1,49.31a18.4,18.4,0,0,1-8.45-12.8,19,19,0,0,1,.76-8.94A4.64,4.64,0,0,0,29.34,26a6.63,6.63,0,0,1-1.28.24A2.67,2.67,0,0,1,26.53,26a1.42,1.42,0,0,1-.11-1.35c1.1-1.91,2.27-3.78,3.52-5.6a1.55,1.55,0,0,1,1.38-.53c.38.15.59.82.8,1.3s.37,1,.68,1.89a18,18,0,0,1,16.45-6.55Z"/><path class="cls-2" d="M57,47.53a6.19,6.19,0,0,1-1.35-9.33c2.72-3.18,3.51-6.41,1.91-10.41,3.6,2.39,4,7,.85,10.42a7.71,7.71,0,0,0-2.07,6.56C56.46,45.67,56.75,46.55,57,47.53Z"/><path class="cls-2" d="M50.26,47.45a5,5,0,0,1-.93-7.1c2.52-3.79,2.52-3.79,1.83-8,2.31,1.17,2.5,4.83,1.19,7C49.88,43.39,49.91,43.4,50.26,47.45Z"/><path class="cls-2" d="M62.75,32.08c2.56,2.19,3.18,5.08,1.4,7.3-2,2.48-3.06,5-1.61,8.38-2.63-2.11-3.14-5.16-1.16-7.48S64.13,35.41,62.75,32.08Z"/></g></g></svg>