<svg xmlns="http://www.w3.org/2000/svg" viewBox="0 0 100 100"><defs><style>.cls-1{fill:#fff;}.cls-2{fill:none;}</style></defs><title>rerna</title><g id="Layer_2" data-name="Layer 2"><g id="Layer_1-2" data-name="Layer 1"><path class="cls-1" d="M50.24,31.25H81.6a2.9,2.9,0,0,1,3,1.82,4.26,4.26,0,0,1,.25,1.58q0,18.06,0,36.11,0,3.75,0,7.49a3,3,0,0,1-3.3,3.3H19a3,3,0,0,1-3.31-3.29q0-21.86,0-43.72a3,3,0,0,1,2.22-3.2A4.81,4.81,0,0,1,19,31.26Zm.1,35.43H78.39a2.7,2.7,0,0,0,3-2.93q0-12.72,0-25.43A2.81,2.81,0,0,0,80.37,36a3.24,3.24,0,0,0-2.12-.54H22.41c-.19,0-.37,0-.56,0a2.62,2.62,0,0,0-2.63,2.75q0,12.86,0,25.71a3.4,3.4,0,0,0,.52,1.67,2.63,2.63,0,0,0,2.46,1.13Z"/><path class="cls-1" d="M50.56,38.54H75.89a2.15,2.15,0,0,1,1.77.66A1.73,1.73,0,0,1,78,41a1.76,1.76,0,0,1-1.38,1.25,4.9,4.9,0,0,1-.95.06H25.29a2.09,2.09,0,0,1-2.09-1,1.82,1.82,0,0,1,1.16-2.65,4.1,4.1,0,0,1,.94-.08Z"/><path class="cls-1" d="M82.27,18.45H17.73A2.73,2.73,0,0,0,15,21.17v5.55a2.73,2.73,0,0,0,2.73,2.73H82.27A2.73,2.73,0,0,0,85,26.72V21.17A2.73,2.73,0,0,0,82.27,18.45ZM26.5,26.95a3,3,0,1,1,3-3A3,3,0,0,1,26.5,26.95Zm10,0a3,3,0,1,1,3-3A3,3,0,0,1,36.5,26.95Zm14,0a3,3,0,1,1,3-3A3,3,0,0,1,50.5,26.95Zm13,0a3,3,0,1,1,3-3A3,3,0,0,1,63.5,26.95Zm10,0a3,3,0,1,1,3-3A3,3,0,0,1,73.5,26.95Z"/><rect class="cls-2" width="100" height="100"/></g></g></svg>