<svg xmlns="http://www.w3.org/2000/svg" viewBox="0 0 100 100"><defs><style>.cls-1{fill:#fff;}.cls-2{fill:none;}</style></defs><title>filter_kafa</title><g id="Layer_2" data-name="Layer 2"><g id="Layer_1-2" data-name="Layer 1"><g id="_5eyUr0.tif" data-name="5eyUr0.tif"><path class="cls-1" d="M18.16,15H83.49V85H20.1c-1.56-1-3.14-2-3.5-4.1-.63-3.55,1.79-6.14,5.85-6.14q23.61,0,47.22,0c1.63,0,2.06-.47,2.05-2.07-.05-16.78,0-33.55,0-50.33,0-.53-.08-1.06-.12-1.59-1.49,1.65-2.6,3.83-4.32,4.53-1.89.77-4.33.18-6.54.18a6,6,0,0,1-1.16,0c-3.09-.62-5,.56-5.82,3.63-.33,1.29-1.17,1.76-2.58,1.72-3.75-.11-7.51-.1-11.27,0-1.3,0-2.15-.31-2.47-1.58-.82-3.25-2.93-4.37-6.11-3.75-2.1.41-3.33-.36-4-2.49-.5-1.65-1-3.63-3.62-3-.26.06-.69-.3-1-.55C21.21,18,19.69,16.49,18.16,15ZM40.45,25.9c.34,1.69,1.06,2.5,2.79,2.33a27,27,0,0,1,5,0c1.76.16,2.41-.69,2.62-2.33Z"/><path class="cls-1" d="M32.62,44.14c-.76-.8-1.8-1.86-2.8-3a2.73,2.73,0,0,0-3.29-.93,2.68,2.68,0,0,0-1.79,2.88c.07,2.39,0,4.79,0,7.19a15,15,0,0,1-2.95,9.07,6.82,6.82,0,0,1-1.6,1.26l-.68-.41c.27-1.19.62-2.38.78-3.59A60.58,60.58,0,0,0,21,50.14c.08-3.1-.21-6.22-.09-9.32.16-4,2.21-6.18,6.21-6.2,12-.06,24,.05,35.95.11a2.56,2.56,0,0,1,.58.23c-1.82,2.77-3.56,5.54-5.45,8.21A2.07,2.07,0,0,0,58.23,46a23.2,23.2,0,0,1,4.55,16.08c-.24,2.41-1.54,4.73-2.47,7-.14.35-.92.63-1.41.64-9.13,0-18.27,0-27.4,0a2.57,2.57,0,0,1-1.73-1.08c-2.9-4.24-3-9-1.62-13.62C29.2,51.4,31,48,32.62,44.14ZM30,58.16c-.09,3,.07,5.79,1.66,8.21a2.78,2.78,0,0,0,1.93,1.16c7.83.08,15.66.06,23.49,0A2,2,0,0,0,58.52,67a12.39,12.39,0,0,0,1.91-8.8Z"/></g><rect class="cls-2" width="100" height="100"/></g></g></svg>