<svg xmlns="http://www.w3.org/2000/svg" viewBox="0 0 100 100"><defs><style>.cls-1{fill:none;}.cls-2{fill:#fff;}</style></defs><title>sauna</title><g id="Layer_2" data-name="Layer 2"><g id="Layer_1-2" data-name="Layer 1"><rect class="cls-1" width="100" height="100"/><path class="cls-2" d="M53.54,38.75c-1.14,1.42-2.18,2.7-3.19,4a1.17,1.17,0,0,0-.1.66c0,3.65,0,7.31.05,11a2.69,2.69,0,0,1-1.49,2.69,3,3,0,0,1-3.26-.28,2.5,2.5,0,0,1-1-2.07c0-4.37-.07-8.74,0-13.1a2.84,2.84,0,0,1,.73-1.67c2.54-2.88,5.14-5.7,7.72-8.54l.59-.65a3,3,0,0,1,2.36-1.09c3.91,0,7.81,0,11.72,0a2.68,2.68,0,0,1,2.11.94c2.84,3.12,5.68,6.23,8.47,9.39a2.79,2.79,0,0,1,.67,1.62c.07,2.39,0,4.78,0,7.18q0,2.93-.05,5.86a2.59,2.59,0,0,1-1.64,2.6,3,3,0,0,1-3.29-.52,2.76,2.76,0,0,1-.86-2.22c0-3.76,0-7.52,0-11.28a1.26,1.26,0,0,0-.25-.72c-.9-1.16-1.83-2.3-2.74-3.45a.89.89,0,0,1-.09-.28c-.13.17-.17.2-.17.23,0,4.89,0,9.78,0,14.68a1.26,1.26,0,0,0,.39.83c2,1.77,4.06,3.51,6.08,5.28a4.19,4.19,0,0,1,1.45,3.4c0,5.75,0,11.51,0,17.26a3.06,3.06,0,0,1-2,3.17,3.76,3.76,0,0,1-4.16-.91,3.2,3.2,0,0,1-.67-2.18c0-5.23,0-10.46,0-15.69a1.33,1.33,0,0,0-.54-1.17c-2.25-1.85-4.48-3.73-6.71-5.61a2.87,2.87,0,0,1-.62-.62c-.46-.75-1.18-.69-1.89-.64a.7.7,0,0,0-.37.18c-2.35,2-4.65,4.11-7.06,6.05a3.14,3.14,0,0,0-1.37,2.8c.09,4.87,0,9.74,0,14.6a3.05,3.05,0,0,1-1.93,3.21,3.66,3.66,0,0,1-4.16-.84,2.76,2.76,0,0,1-.71-2c0-4.68,0-9.36,0-14,0-1.19,0-2.39,0-3.58A4,4,0,0,1,47,59.86q2.86-2.51,5.78-5a1.7,1.7,0,0,0,.74-1.45c0-4.58,0-9.16,0-13.74C53.54,39.44,53.54,39.18,53.54,38.75Z"/><path class="cls-2" d="M37.2,83.64H16.07c-.94,0-1.07-.14-1.07-1.11q0-10.21,0-20.42,0-4.44,0-8.87V52.3H36.6c.47,0,.66.08.66.61q0,15,0,30C37.24,83.16,37.22,83.36,37.2,83.64Z"/><path class="cls-2" d="M61.64,28.69a6.33,6.33,0,0,1-6.31-6.41A6.25,6.25,0,0,1,61.62,16a6.34,6.34,0,1,1,0,12.68Z"/><path class="cls-2" d="M23,48.9a3.11,3.11,0,0,1,2.9-2,3.34,3.34,0,0,1,3.41,1.74,3.9,3.9,0,0,1,4.11-.28,2.42,2.42,0,0,1,1.48,2.23c0,.38-.1.56-.54.55-3.38,0-6.76,0-10.14,0h-6.8a2.07,2.07,0,0,1,1.13-2.4A4,4,0,0,1,23,48.9Z"/><path class="cls-2" d="M76.26,58.43a3.81,3.81,0,0,0,2.8-1.64,1.76,1.76,0,0,0,.34-.6c.13-.64.48-.78,1.11-.75,1.28.06,2.56,0,3.84,0H85v5.72H83.1c-1.39,0-2.77,0-4.16,0-.22,0-.56-.09-.63-.23a6.52,6.52,0,0,0-1.92-2.29S76.33,58.54,76.26,58.43Z"/><path class="cls-2" d="M38.47,55.46h1.64c1,0,2.1,0,3.15,0a.73.73,0,0,1,.55.33,4,4,0,0,0,3.53,2.55c-.38.35-.73.65-1,1a2.86,2.86,0,0,0-.77.9c-.33,1-1,1-1.88,1-1.49,0-3,0-4.46,0h-.71Z"/><path class="cls-2" d="M53.69,64.32c.92-.78,1.75-1.51,2.61-2.2a1,1,0,0,1,.58-.15h9.69a1,1,0,0,1,.58.16c.84.69,1.66,1.41,2.58,2.19Z"/><path class="cls-2" d="M27.18,40.22a15.37,15.37,0,0,1,.65-1.77c.39-.76.87-1.48,1.32-2.21a1.37,1.37,0,0,0,0-1.59c-.39-.6-.81-1.18-1.19-1.77a3.33,3.33,0,0,1-.1-3.74c.51-.87,1-1.72,1.56-2.58a1,1,0,0,1,.33-.37.83.83,0,0,1,.56-.13.52.52,0,0,1,.21.46A7.09,7.09,0,0,1,30,28c-.37.73-.82,1.41-1.25,2.11a1.41,1.41,0,0,0,.06,1.65c.35.52.69,1.05,1.05,1.57A3.57,3.57,0,0,1,30,37.44c-.41.66-.82,1.32-1.22,2a1.45,1.45,0,0,0,0,1.71c.55.79,1.1,1.58,1.58,2.42a1.6,1.6,0,0,1,.11,1.06.45.45,0,0,1-.86.13c-.63-.91-1.28-1.82-1.83-2.77A9.88,9.88,0,0,1,27.18,40.22Z"/><path class="cls-2" d="M23.41,40.1a17.34,17.34,0,0,1,.7-1.84c.37-.73.84-1.4,1.26-2.1a1.4,1.4,0,0,0-.05-1.6c-.36-.54-.73-1.08-1.09-1.61A3.47,3.47,0,0,1,24.05,29c.46-.82,1-1.61,1.47-2.42.07-.11.12-.24.22-.3a6.64,6.64,0,0,1,.71-.28c.09.24.29.51.23.71a8.92,8.92,0,0,1-.68,1.6c-.31.59-.68,1.15-1,1.72A1.39,1.39,0,0,0,25,31.76c.4.56.79,1.13,1.16,1.72a3.33,3.33,0,0,1,.13,3.63q-.61,1.1-1.29,2.16a1.47,1.47,0,0,0,0,1.85c.57.78,1.11,1.58,1.61,2.4a1.52,1.52,0,0,1,.11.94.71.71,0,0,1-.46.44c-.13,0-.39-.14-.49-.29-.64-.91-1.3-1.81-1.85-2.77A8.46,8.46,0,0,1,23.41,40.1Z"/><path class="cls-2" d="M23,26.61a10,10,0,0,1-.46,1.11c-.42.75-.85,1.49-1.33,2.21a1.5,1.5,0,0,0,.07,1.86c.41.58.82,1.17,1.19,1.78A3.28,3.28,0,0,1,22.53,37c-.42.77-.88,1.53-1.35,2.27a1.39,1.39,0,0,0,0,1.69c.53.76,1,1.53,1.56,2.29a1.12,1.12,0,0,1,.18,1.23c-.22.43-.61.49-.88.1a33.91,33.91,0,0,1-2-3,3.15,3.15,0,0,1,.07-3.13c.44-.79.9-1.56,1.39-2.32a1.41,1.41,0,0,0,0-1.7c-.4-.59-.81-1.17-1.19-1.77a3.34,3.34,0,0,1-.09-3.63c.44-.79.92-1.55,1.39-2.32a1.67,1.67,0,0,1,.44-.53.84.84,0,0,1,.62-.14C22.81,26.13,22.87,26.4,23,26.61Z"/><path class="cls-2" d="M65.93,61.13H57.46l.87-.76L61.15,58a.79.79,0,0,1,1.13,0c1.15,1,2.3,2,3.45,2.93A2,2,0,0,1,65.93,61.13Z"/><path class="cls-2" d="M78.69,62H85v2.35h-6.3Z"/><path class="cls-2" d="M38.47,64.33V62h6.22v2.32Z"/></g></g></svg>