<svg xmlns="http://www.w3.org/2000/svg" viewBox="0 0 100 100"><defs><style>.cls-1{fill:none;}.cls-2{fill:#fff;}</style></defs><title>bazen</title><g id="Layer_2" data-name="Layer 2"><g id="Layer_1-2" data-name="Layer 1"><rect class="cls-1" width="100" height="100"/><g id="EhaXlX.tif"><path class="cls-2" d="M15,60.24l.17-.37a2.28,2.28,0,0,1,3.73-.81A4.52,4.52,0,0,0,25.18,59c3.66-3.33,8.32-3.34,12.14-.17a3.21,3.21,0,0,0,.29.18c0-.28,0-.5,0-.72q0-15.86,0-31.72a6.16,6.16,0,0,0-3.41-5.92,6,6,0,0,0-8.58,4.73c0,.32-.06.63-.11,1A2.29,2.29,0,0,1,21,26a10.64,10.64,0,0,1,21.18-1.44,16.05,16.05,0,0,1,.11,2.32c0,3,0,5.92,0,8.94h21a4,4,0,0,0,0-.44c0-3.08,0-6.15,0-9.23a6,6,0,1,0-12-.2,2.32,2.32,0,1,1-4.63-.11,10.65,10.65,0,0,1,21.07-2,12.84,12.84,0,0,1,.23,2.65q0,14.56,0,29.12v.67c1.3.23,2.52.36,3.69.68a9.55,9.55,0,0,1,3.66,2.31,4.19,4.19,0,0,0,5,.37A7.29,7.29,0,0,0,81,59.1a2.31,2.31,0,0,1,3.86,1,1.09,1.09,0,0,0,.11.17v1a6.08,6.08,0,0,1-.8,1.25,8.69,8.69,0,0,1-7.86,2.35A8.24,8.24,0,0,1,72,62.59a4.66,4.66,0,0,0-4.3-1.38,5.32,5.32,0,0,0-2.4,1.49,8.86,8.86,0,0,1-7.7,2.08,8.52,8.52,0,0,1-4.42-2.3,4.39,4.39,0,0,0-3.86-1.29A5.25,5.25,0,0,0,46.6,62.7a8.87,8.87,0,0,1-11.9,0,8,8,0,0,0-1.17-.93c-1.8-1.08-3.68-.77-5.48.84a8.62,8.62,0,0,1-8.51,2A6.43,6.43,0,0,1,15,61.2ZM42.32,40.59v9.2H63.24v-9.2Zm0,19.49c.56-.4,1-.7,1.45-1.06,3.86-3.4,8.65-3.42,12.46,0,2.25,2,4.82,1.63,6.91-.6a.49.49,0,0,0,.14-.29c0-1.2,0-2.4,0-3.59h-21Z"/><path class="cls-2" d="M85,70V71a7.59,7.59,0,0,1-1,1.41,8.73,8.73,0,0,1-9,1.77A10.76,10.76,0,0,1,71.42,72a4.1,4.1,0,0,0-4.95-.39,18.89,18.89,0,0,0-1.59,1.28,8.94,8.94,0,0,1-11.54-.37,6.67,6.67,0,0,0-1.91-1.26,4.32,4.32,0,0,0-4.68,1.16,8.84,8.84,0,0,1-12.19,0,6.85,6.85,0,0,0-1-.8c-1.79-1.07-3.68-.8-5.42.79a8.64,8.64,0,0,1-7.89,2.23A6.91,6.91,0,0,1,15,71V70c1.17-2,2.44-2.27,4.29-.78a4.3,4.3,0,0,0,5.83-.36,8.87,8.87,0,0,1,12.41,0,4.31,4.31,0,0,0,6.3,0,8.85,8.85,0,0,1,12.36,0,4.31,4.31,0,0,0,6.3,0,8.9,8.9,0,0,1,12.42,0,5.48,5.48,0,0,0,1.78,1.1,4.16,4.16,0,0,0,4.36-1,2.32,2.32,0,0,1,2.53-.51A2.92,2.92,0,0,1,85,70Z"/><path class="cls-2" d="M15,80.89V79.8c.05-.09.11-.19.16-.28a2.28,2.28,0,0,1,3.67-.89A4.81,4.81,0,0,0,22,80a5,5,0,0,0,3.32-1.53,8.67,8.67,0,0,1,8.06-2.06,8.57,8.57,0,0,1,4.08,2.23,4.43,4.43,0,0,0,3.73,1.32,5.4,5.4,0,0,0,2.89-1.57,8.67,8.67,0,0,1,7.89-2A8.36,8.36,0,0,1,56,78.49a4.59,4.59,0,0,0,3.69,1.44,5,5,0,0,0,2.92-1.48,8.71,8.71,0,0,1,8.25-2.06,8.27,8.27,0,0,1,3.84,2.12,4.53,4.53,0,0,0,3.69,1.42,5,5,0,0,0,2.72-1.31,2.28,2.28,0,0,1,3.67.89c0,.1.11.19.16.28v1.09a6.12,6.12,0,0,1-.78,1.17A8.72,8.72,0,0,1,76,84.34a9.36,9.36,0,0,1-4.41-2.47,4.14,4.14,0,0,0-3-1.13,4.89,4.89,0,0,0-3.25,1.53,8.89,8.89,0,0,1-11.95,0,8,8,0,0,0-1.17-.93c-1.79-1.08-3.67-.77-5.48.84a8.87,8.87,0,0,1-12.15,0c-2.17-2-4.31-2-6.49,0a8.63,8.63,0,0,1-7.63,2.25A7.16,7.16,0,0,1,15,80.89Z"/></g></g></g></svg>