<svg xmlns="http://www.w3.org/2000/svg" viewBox="0 0 100 100"><defs><style>.cls-1{fill:#fff;}.cls-2{fill:none;}</style></defs><title>sudomasina</title><g id="Layer_2" data-name="Layer 2"><g id="Layer_1-2" data-name="Layer 1"><path class="cls-1" d="M53.14,27.65a3.05,3.05,0,0,1-3.06,3.18,3.09,3.09,0,0,1-3.21-3.05,3.14,3.14,0,1,1,6.28-.13Z"/><path class="cls-1" d="M59.53,24.57a3.15,3.15,0,0,1,3.16,3.13,3.14,3.14,0,0,1-6.27,0A3.14,3.14,0,0,1,59.53,24.57Z"/><path class="cls-1" d="M69.13,24.57a3.19,3.19,0,0,1,3.11,3.19A3.14,3.14,0,0,1,66,27.69,3.14,3.14,0,0,1,69.13,24.57Z"/><path class="cls-1" d="M15,50.19q0-13.79,0-27.57C15,17.22,17.2,15,22.57,15h55C82.75,15,85,17.26,85,22.52q0,27.48,0,55C85,82.74,82.75,85,77.53,85h-55C17.22,85,15,82.77,15,77.39Q15,63.79,15,50.19ZM78.6,21.44H21.46V34H78.6ZM27.93,75.39H40.35c.4-3,.4-3-2.18-3.89-.41-.13-.8-.3-1.22-.4a1.39,1.39,0,0,1-1.23-1.67c.09-1.09,0-2.18,0-3.32,4.57-.82,6.93-3.83,7.67-7.95.46-2.59.09-5.34.09-8.11H24.67c-1,9.27,1,14.51,7.8,16.17v4.32C30.57,71.83,26.61,71,27.93,75.39Zm41.18.06c3.86-.45,6.3-2.73,6.36-6.13.11-6.54.12-13.09,0-19.63a5.91,5.91,0,0,0-6.35-5.85Zm-12.65,0c3.59-.44,6.13-2.61,6.18-5.61q.18-10.28,0-20.57a5.92,5.92,0,0,0-6.18-5.5Z"/><rect class="cls-2" width="100" height="100"/></g></g></svg>