<svg xmlns="http://www.w3.org/2000/svg" viewBox="0 0 65.34 70"><defs><style>.cls-1{fill:#fff;}</style></defs><title>hendikep</title><g id="Layer_2" data-name="Layer 2"><g id="Layer_1-2" data-name="Layer 1"><g id="_1G3oTc.tif" data-name="1G3oTc.tif"><path class="cls-1" d="M23,70c-1.74-.31-3.52-.49-5.22-1A24,24,0,0,1,5.45,61.11,22.73,22.73,0,0,1,.68,51.77,22.37,22.37,0,0,1,1.86,37.33,24.23,24.23,0,0,1,15.55,24.23a3.23,3.23,0,0,1,2.78.13,2.69,2.69,0,0,1,1.59,2.59,2.65,2.65,0,0,1-1.75,2.55,21.43,21.43,0,0,0-5.8,3.41,17.44,17.44,0,0,0-1.59,25.32A18.77,18.77,0,0,0,40.6,55a22.85,22.85,0,0,0,1.93-4.71c.68-2.09,2.51-3,4.43-2.07a2.71,2.71,0,0,1,1.54,3.17A23.52,23.52,0,0,1,38.34,65.88a24.73,24.73,0,0,1-11.48,4,2.72,2.72,0,0,0-.45.12Z"/><path class="cls-1" d="M26.4,0A9.13,9.13,0,0,1,30,1.75,7,7,0,0,1,31.15,11a6.87,6.87,0,0,1-10.37,1.12,6.9,6.9,0,0,1,1-11A21.75,21.75,0,0,1,24.49,0Z"/><path class="cls-1" d="M34.89,29.42l1.5,7.34h.74c3.87,0,7.75,0,11.62,0a5.16,5.16,0,0,1,4.89,2.85C57.3,46.06,61,52.48,64.72,58.91a3.55,3.55,0,0,1-1.18,5.14,3.76,3.76,0,0,1-5.2-1.56q-4.81-8.41-9.64-16.82a.8.8,0,0,0-.8-.47c-5.72,0-11.43,0-17.15.06a4.71,4.71,0,0,1-4.86-3.76q-2.08-9.78-4.06-19.58a5.5,5.5,0,0,1,5.68-6.36A5.58,5.58,0,0,1,33,20.13c.17.92.39,1.83.52,2.75.07.51.26.66.78.66q5.36,0,10.73,0a3,3,0,0,1,3.18,2.95A2.82,2.82,0,0,1,45.3,29.4c-3.19,0-9.57,0-9.57,0Z"/></g></g></g></svg>