<svg xmlns="http://www.w3.org/2000/svg" viewBox="0 0 100 100"><defs><style>.cls-1{fill:none;}.cls-2{fill:#fff;}</style></defs><title>16+</title><g id="Layer_2" data-name="Layer 2"><g id="Layer_1-2" data-name="Layer 1"><rect class="cls-1" width="100" height="100"/><path class="cls-2" d="M49.12,68.37a1.86,1.86,0,0,0,1.43-.59,2.21,2.21,0,0,0,.54-1.56,2.18,2.18,0,0,0-.54-1.54,1.86,1.86,0,0,0-1.43-.59,1.89,1.89,0,0,0-1.44.59,2.16,2.16,0,0,0-.55,1.54,2.2,2.2,0,0,0,.55,1.55A1.87,1.87,0,0,0,49.12,68.37Z"/><path class="cls-2" d="M50,15A35,35,0,1,0,85,50,35,35,0,0,0,50,15Zm0,9.43a5.64,5.64,0,1,1-5.64,5.64A5.64,5.64,0,0,1,50,24.43Zm0,12.51c5.31,0,9.8,4.52,11.27,10.73H38.73C40.2,41.46,44.69,36.94,50,36.94ZM41.51,70.5H32.77V68.12h2.89V60.39l-2.28,1.33-1.12-2.13,4.26-2.49h2.11v11h2.89ZM48,62.22a3.72,3.72,0,0,1,1.79-.43,4,4,0,0,1,2.1.55,3.85,3.85,0,0,1,1.44,1.54,4.73,4.73,0,0,1,.52,2.24,4.66,4.66,0,0,1-.59,2.35,4.17,4.17,0,0,1-1.63,1.62,4.77,4.77,0,0,1-2.36.58,4.93,4.93,0,0,1-4-1.73A7.58,7.58,0,0,1,43.84,64a9.54,9.54,0,0,1,.68-3.79,5.13,5.13,0,0,1,5-3.28,7.47,7.47,0,0,1,2.4.39,5.67,5.67,0,0,1,2,1.11l-1,2.11a5.65,5.65,0,0,0-3.31-1.29,2.33,2.33,0,0,0-2,1.05,5.77,5.77,0,0,0-.81,3.07A3.14,3.14,0,0,1,48,62.22Zm19.73,2.66H63.92v3.83H61.84V64.88H58V62.83h3.83V59h2.07v3.85h3.83Z"/></g></g></svg>