<svg xmlns="http://www.w3.org/2000/svg" viewBox="0 0 100 100"><defs><style>.cls-1{fill:#fff;}.cls-2{fill:none;}</style></defs><title>dvoriste-namestaj</title><g id="Layer_2" data-name="Layer 2"><g id="Layer_1-2" data-name="Layer 1"><g id="EaNgWn.tif"><path class="cls-1" d="M52,35.13V56.74H48V35.15H15L15,35c.17-.09.33-.19.51-.26q15.93-6.56,31.86-13.1a.92.92,0,0,0,.69-1,2,2,0,1,1,3.94,0c0,.59.21.81.72,1q15.87,6.51,31.72,13.06a1.27,1.27,0,0,1,.57.4Z"/><path class="cls-1" d="M58.49,81.52H41.69l-.09-.14A7.88,7.88,0,0,1,43,80.16a31.42,31.42,0,0,1,3.25-1.39c.35-.13.56-.21.56-.65,0-4.42,0-8.84,0-13.26a1,1,0,0,0-.44-.7,6.39,6.39,0,0,0-4-1.11c-2.82.11-5.66,0-8.48,0h-.79v-3.9H67v3.9h-.77c-3.26,0-6.51,0-9.77,0-1.22,0-2,.83-3,1.27-.1,0-.14.29-.14.44q0,6.81,0,13.62a1,1,0,0,0,.06.23A8.64,8.64,0,0,1,58.49,81.52Z"/><path class="cls-1" d="M36.1,81.54H32.9l-1.42-9.32H21.66l-1.42,9.3H17c.24-1.53.46-3,.69-4.47.31-2,.74-3.93.89-5.91a20.43,20.43,0,0,0-.32-4c-.46-3.69-1-7.38-1.45-11.14H20l1.72,13H33.5c.33,0,.63-.07.71.44.6,3.92,1.24,7.83,1.86,11.75C36.08,81.27,36.08,81.37,36.1,81.54Z"/><path class="cls-1" d="M68.56,72.2l-1.42,9.32H63.92c.23-1.47.45-2.92.68-4.36.4-2.51.84-5,1.21-7.52.08-.57.31-.67.81-.67,3.71,0,7.41,0,11.12,0,.16,0,.33,0,.56,0L80,56h3.2c-.15,1.16-.28,2.3-.43,3.44-.47,3.6-1,7.2-1.38,10.81a12.14,12.14,0,0,0,.34,3c.39,2.56.81,5.11,1.22,7.67a5.92,5.92,0,0,1,0,.6H79.8L78.37,72.2Z"/></g><rect class="cls-2" width="100" height="100"/></g></g></svg>