<svg xmlns="http://www.w3.org/2000/svg" viewBox="0 0 100 100"><defs><style>.cls-1{fill:none;}.cls-2{fill:#fff;}</style></defs><title>pet-enemy</title><g id="Layer_2" data-name="Layer 2"><g id="Layer_1-2" data-name="Layer 1"><rect class="cls-1" width="100" height="100"/><path class="cls-2" d="M38.71,54a8.7,8.7,0,0,0-.13-5.1c-.86-3.08-2.52-5.56-5.69-6.68a4,4,0,0,0-5.24,2.15,22,22,0,0,0-.83,2.23V49a7.7,7.7,0,0,1,.28.76,10.67,10.67,0,0,0,4.74,6.85C34.76,58.41,37.68,57.27,38.71,54Z"/><path class="cls-2" d="M67.34,41.42c-4.8,1.38-7.89,8.56-5.59,13a4.08,4.08,0,0,0,4.85,2.18,7.45,7.45,0,0,0,4.58-3.68,40.72,40.72,0,0,0,2-4.58V45.91c-.19-.6-.36-1.22-.59-1.81A4.26,4.26,0,0,0,67.34,41.42Z"/><path class="cls-2" d="M39.92,43.45c2.93,2.49,6.47,1.59,7.9-2a11.69,11.69,0,0,0-2.43-11.67c-3.28-3.21-7.33-2.24-8.72,2.12a18.55,18.55,0,0,0-.51,2.69C36.32,38.41,37.37,41.28,39.92,43.45Z"/><path class="cls-2" d="M76.36,27a35.34,35.34,0,0,0-2.56-2.63A35,35,0,0,0,24.34,73.8,35.35,35.35,0,0,0,27,76.36,35,35,0,0,0,76.36,27ZM19.59,50A30.41,30.41,0,0,1,70.21,27.27l-6.87,6.87a9.13,9.13,0,0,0-1.2-3.84,4.62,4.62,0,0,0-7.46-1.12c-2.44,2.22-3.42,5.07-3.76,8.37a33,33,0,0,0,1.29,4.33,5.1,5.1,0,0,0,1.46,1.93l-8.32,8.32a14.37,14.37,0,0,0-3.5,2.38,16.9,16.9,0,0,0-3.58,4.7l-11,11A30.29,30.29,0,0,1,19.59,50ZM71.51,71.51A30.42,30.42,0,0,1,30.57,73.4l5-5c.12,2.6,1.05,3.33,3.27,3.54,3.09.29,5.85-.71,8.63-1.82a9.46,9.46,0,0,1,7.5-.11c.85.36,1.7.72,2.53,1.11a9.12,9.12,0,0,0,5,1A3.92,3.92,0,0,0,66.12,68a9.26,9.26,0,0,0-.62-2.8A30.66,30.66,0,0,0,57.77,54a10.72,10.72,0,0,0-4-2.4c-.38-.12-.75-.21-1.12-.3L73.4,30.57a30.42,30.42,0,0,1-1.89,40.94Z"/></g></g></svg>