<svg xmlns="http://www.w3.org/2000/svg" viewBox="0 0 100 100"><defs><style>.cls-1{fill:none;}.cls-2{fill:#fff;}</style></defs><title>do centra</title><g id="Layer_2" data-name="Layer 2"><g id="Layer_1-2" data-name="Layer 1"><rect class="cls-1" width="100" height="100"/><path class="cls-2" d="M73.81,64.17V52.08H72.3v-.76h.76v-3H67.76v3h.76v.76H67V64.17H65.5V38.47L59.83,32,53.4,38.47v25.7H51.89V46.79H48.11V64.17H46.6V52.08l-3.9-4.42-4.42,4.42V64.17H36.77V42.25H31.86V34.69H31.1v7.56H26.19V64.17H24.68V68H75.32V64.17ZM60.58,40h3v3h-3Zm0,4.54h3v3h-3Zm0,4.54h3v3h-3Zm0,4.54h3v3h-3Zm0,4.54h3v3h-3ZM55.29,40h3v3h-3Zm0,4.54h3v3h-3Zm0,4.54h3v3h-3Zm0,4.54h3v3h-3Zm0,4.54h3v3h-3ZM32.24,49.81h3v3h-3Zm0,9.07h3v3h-3Zm-1.51-.76h-3v-3h3Zm-3.4-14.74h3v3h-3Zm15.12,10.2a1.51,1.51,0,1,1-1.51,1.51A1.51,1.51,0,0,1,42.44,53.59Zm-1.51,7.56h3v3h-3Z"/></g></g></svg>