<svg xmlns="http://www.w3.org/2000/svg" viewBox="0 0 100 100"><defs><style>.cls-1{fill:#fff;}.cls-2{fill:none;}</style></defs><title>pusenje_zabranjeno</title><g id="Layer_2" data-name="Layer 2"><g id="Layer_1-2" data-name="Layer 1"><path class="cls-1" d="M70.74,62.05h2.17V55.83l-2.17-.11Z"/><path class="cls-1" d="M67.49,62.08h2V55.8h-2Z"/><path class="cls-1" d="M76.41,27.05A35,35,0,1,0,27.05,76.41,35,35,0,0,0,76.41,27.05ZM27,70.79A31,31,0,0,1,70.79,27l-8.43,8.43c-.1-.18-.2-.36-.32-.54a7.06,7.06,0,0,0-6-3.07v2.06c.46.09.89.16,1.32.26a4.8,4.8,0,0,1,3.38,2.91l-4.81,4.81c.3-1.31,0-1.36-2-1.53a4.33,4.33,0,0,1-4.07-3.88A4.12,4.12,0,0,1,53.37,32a3.61,3.61,0,0,0,.41-.15V29.91c-2.51-.39-5.1,1.66-5.85,4.58-1,3.72.84,6.35,5.53,8.06,0,.21,0,.42,0,.64a8.39,8.39,0,0,0,0,1.1L41.95,55.86H31l-4,0v6.22c.31,0,.62.08.93.08h7.65ZM50,81a30.86,30.86,0,0,1-20.1-7.43L41.33,62.13h24c.3,0,.6,0,.91-.06V55.86H47.6L55.5,48a6.06,6.06,0,0,0,3.42.9c1.76,0,3.52,0,5.28,0,2.19,0,3.23,1.12,3.23,3.28,0,.84,0,1.68,0,2.54h2a26.65,26.65,0,0,0,0-4.07c-.38-2.41-2.33-3.81-5.17-3.88-1.85,0-3.71,0-5.56,0a3.49,3.49,0,0,1-1.58-.36l2.9-2.9a2.31,2.31,0,0,0,1.14.41c1,.09,2.07,0,3.11,0a6.15,6.15,0,0,1,5.46,3.28,7.46,7.46,0,0,1,1,4c0,1.18,0,2.36,0,3.56h2.22V50a6.75,6.75,0,0,1-.19-.7,8.74,8.74,0,0,0-7.61-7.51,20.87,20.87,0,0,0-2.53,0c.14-.41.25-.82.34-1.22L73.57,29.9A31,31,0,0,1,50,81Z"/><rect class="cls-2" width="100" height="100"/></g></g></svg>