<svg xmlns="http://www.w3.org/2000/svg" viewBox="0 0 100 100"><defs><style>.cls-1{fill:none;}.cls-2{fill:#fff;}</style></defs><title>laptop</title><g id="Layer_2" data-name="Layer 2"><g id="Layer_1-2" data-name="Layer 1"><rect class="cls-1" width="100" height="100"/><g id="N1XTkV.tif"><path class="cls-2" d="M15,70c1.5-1.11,3-2.23,4.52-3.31a1.94,1.94,0,0,1,1-.36q29.4,0,58.81,0a1.83,1.83,0,0,1,1,.33c1.36,1,2.69,2,4,3a2.22,2.22,0,0,1,.49,2.25c-.22.71-.79.77-1.43.77H23.9c-2.49,0-5,0-7.47,0A1.45,1.45,0,0,1,15,71.94Zm35,0c-1.46,0-2.92,0-4.38,0-.37,0-.61.06-.61.51s.17.56.57.56h8.84c.4,0,.57-.14.57-.56s-.24-.51-.61-.51Z"/><path class="cls-2" d="M50,65q-14.6,0-29.21,0c-.59,0-.77-.13-.77-.75Q20,47.15,20,30c0-1.93.73-2.66,2.64-2.66H77.27c2,0,2.68.72,2.68,2.69q0,17.07,0,34.15c0,.71-.19.86-.88.86Q64.52,65,50,65ZM22.67,62.87H77.26V30H22.67Z"/></g></g></g></svg>