<svg xmlns="http://www.w3.org/2000/svg" viewBox="0 0 100 100"><defs><style>.cls-1{fill:none;}.cls-2{fill:#fff;}</style></defs><title>doktor</title><g id="Layer_2" data-name="Layer 2"><g id="Layer_1-2" data-name="Layer 1"><rect class="cls-1" width="100" height="100"/><g id="_0ThpAm.tif" data-name="0ThpAm.tif"><path class="cls-2" d="M67.22,15a4.23,4.23,0,0,1,2.59,1.74c.09.15.4.18.61.22a9.61,9.61,0,0,1,7.66,6.8,9.45,9.45,0,0,1-1,7.95q-5.47,9.49-11,19a9.58,9.58,0,0,1-6.33,4.8.62.62,0,0,0-.57.73q0,4.24,0,8.47a23.88,23.88,0,0,1-3.37,12.69,15.18,15.18,0,0,1-8.7,7.06c-.91.27-1.86.37-2.8.55H43.15c-.91-.18-1.84-.3-2.72-.56a14.45,14.45,0,0,1-7.66-5.55,22.3,22.3,0,0,1-4.34-13.13c-.08-3.71,0-7.43,0-11.14a.85.85,0,0,0-.74-1,8.63,8.63,0,1,1,9.57-3.47,8.35,8.35,0,0,1-4.81,3.48.76.76,0,0,0-.66.89c0,3.49,0,7,0,10.46a19.88,19.88,0,0,0,3.34,11.42,11,11,0,0,0,6.67,4.89,9.28,9.28,0,0,0,8.91-2.77A16.83,16.83,0,0,0,55.45,69a31.12,31.12,0,0,0,.4-4.62c.06-2.71,0-5.42,0-8.13,0-.46-.1-.69-.59-.8A9.5,9.5,0,0,1,49,50.76C45.3,44.39,41.6,38,38,31.65a9.76,9.76,0,0,1,4.37-14,18.32,18.32,0,0,1,2.4-.75c.17-.05.41-.08.48-.2A4.22,4.22,0,0,1,47.8,15h.82l.51.17a3.46,3.46,0,0,1,.64,6.42A3.17,3.17,0,0,1,45.93,21c-.71-.85-1.32-.63-2.06-.31A6.41,6.41,0,0,0,40.93,30c2.05,3.6,4.13,7.18,6.2,10.77,1.67,2.9,3.32,5.81,5.05,8.67a5.88,5.88,0,0,0,4.91,2.91,6.27,6.27,0,0,0,6.15-3.41q2.66-4.58,5.29-9.17c2-3.45,4.06-6.86,5.92-10.38a6.36,6.36,0,0,0-3.92-8.94.93.93,0,0,0-1.16.33,3.42,3.42,0,0,1-6-2.48,3.4,3.4,0,0,1,2.44-3.12L66.4,15Z"/></g></g></g></svg>