<svg xmlns="http://www.w3.org/2000/svg" viewBox="0 0 100 100"><defs><style>.cls-1{fill:none;}.cls-2{fill:#fff;}</style></defs><title>kafic</title><g id="Layer_2" data-name="Layer 2"><g id="Layer_1-2" data-name="Layer 1"><rect class="cls-1" width="100" height="100"/><g id="_7bRRoA.tif" data-name="7bRRoA.tif"><path class="cls-2" d="M16.27,82.3q0-.18,0-.36a12.1,12.1,0,0,1,2-.81c1.59-.33,3.2-.57,4.81-.79,1.33-.18,2.66-.28,4-.42l.13-.25a2.84,2.84,0,0,1-.47-.26A24.51,24.51,0,0,1,19.49,68.6a53.07,53.07,0,0,1-2.86-14.92q-.18-2.64-.36-5.29V41.3H71.2v5.88c1.43.41,2.82.73,4.15,1.21,3.31,1.19,6.06,3.1,7.47,6.47a26,26,0,0,1,.91,3.31v1.6a4.75,4.75,0,0,0-.15.59,10.45,10.45,0,0,1-5.46,8.05A21.17,21.17,0,0,1,68.4,71.1a2.12,2.12,0,0,0-2.11,1.3,21.67,21.67,0,0,1-5.55,7.06,2.91,2.91,0,0,0-.34.43c2.28.28,4.49.5,6.68.85a21.25,21.25,0,0,1,3.59.92c.7.24.69.74,0,1a11.28,11.28,0,0,1-2.19.67,94.38,94.38,0,0,1-14.64,1.41,213.94,213.94,0,0,1-23.59-.19c-3.8-.26-7.58-.76-11.36-1.26A11.53,11.53,0,0,1,16.27,82.3ZM31.33,45.6H23C20.83,55,26.92,71,34,74.65l-.21-.79c-.85-3.31-1.81-6.6-2.51-9.94a41.36,41.36,0,0,1-.84-13C30.66,49.13,31,47.39,31.33,45.6ZM69.18,65.79c.62-.11,1.32-.19,2-.35,4.11-.92,5.62-2.89,5.42-7.1,0,0,0-.06,0-.09a5.72,5.72,0,0,0-5.45-5.49Z"/><path class="cls-2" d="M67.34,19.22a5.24,5.24,0,0,1-3,4.82c-2.4,1.12-4.94,1.92-7.4,2.9-1.86.74-3.74,1.45-5.52,2.36a5.74,5.74,0,0,0-3.12,4.39,3.14,3.14,0,0,1-.19.68,1.77,1.77,0,0,1-2,1c-.8-.21-1.13-.81-1-1.8a9.66,9.66,0,0,1,4.58-6.94,24.1,24.1,0,0,1,6.79-2.73,40.16,40.16,0,0,0,4.36-1.45c1.46-.6,2.74-1.5,3-3.24a6.54,6.54,0,0,0-.2-2c-.23-1.16.07-1.87,1-2.13a1.67,1.67,0,0,1,2.14,1.22C67,17.25,67.12,18.24,67.34,19.22Z"/><path class="cls-2" d="M76,21.07a7.55,7.55,0,0,1-5.33,7.4c-1.84.63-3.77,1-5.65,1.47-1.14.31-2.27.64-3.38,1a6.54,6.54,0,0,0-4.23,4.11,1.56,1.56,0,0,1-2.18,1.06c-.92-.35-1.18-1.16-.79-2.28a9.59,9.59,0,0,1,6.53-6c2.38-.78,4.85-1.28,7.26-2a10.34,10.34,0,0,0,2.27-1,4.3,4.3,0,0,0,2.21-3.8c0-.38,0-.77,0-1.15,0-1,.28-1.48,1.09-1.65a1.73,1.73,0,0,1,2,1.12A11.09,11.09,0,0,1,76,21.07Z"/></g></g></g></svg>