<svg xmlns="http://www.w3.org/2000/svg" viewBox="0 0 100 100"><defs><style>.cls-1{fill:none;}.cls-2{fill:#fff;}</style></defs><title>mikrotalasna</title><g id="Layer_2" data-name="Layer 2"><g id="Layer_1-2" data-name="Layer 1"><rect class="cls-1" width="100" height="100"/><path class="cls-2" d="M73.16,55.43c-.43,0-.86,0-1.3,0s-.87,0-1.3,0a2.5,2.5,0,0,0-2.68,2.46,2.61,2.61,0,0,0,2.64,2.53c.91,0,1.82,0,2.72,0a2.45,2.45,0,0,0,2.42-2.55A2.38,2.38,0,0,0,73.16,55.43Z"/><path class="cls-2" d="M62.38,38.2H29.79c-1.9,0-3,.92-3,2.7q0,8.37,0,16.73c0,1.86,1.09,2.79,3,2.79H62.44c2,0,3-.91,3.05-2.79q.07-8.3,0-16.61C65.48,39.06,64.44,38.2,62.38,38.2Z"/><path class="cls-2" d="M71.82,48.06c-.43,0-.87,0-1.3,0a2.42,2.42,0,0,0-2.6,2.38A2.52,2.52,0,0,0,70.34,53a21.27,21.27,0,0,0,3,0,2.41,2.41,0,0,0,2.36-2.6,2.32,2.32,0,0,0-2.44-2.37C72.77,48,72.29,48.07,71.82,48.06Z"/><path class="cls-2" d="M71.77,45.69A3.79,3.79,0,0,0,75.68,42a3.68,3.68,0,0,0-3.82-3.83,3.82,3.82,0,0,0-4,3.75A3.92,3.92,0,0,0,71.77,45.69Z"/><path class="cls-2" d="M81.72,27.58H18.28A3.29,3.29,0,0,0,15,30.86V67.5a3.29,3.29,0,0,0,3.28,3.28h2.19a1.65,1.65,0,0,0,1.64,1.64h5.2a1.65,1.65,0,0,0,1.64-1.64H70.51a1.65,1.65,0,0,0,1.64,1.64h5.2A1.65,1.65,0,0,0,79,70.78h2.73A3.29,3.29,0,0,0,85,67.5V30.86A3.29,3.29,0,0,0,81.72,27.58ZM50,65.17H24.84c-2.13,0-3-.83-3-2.86q0-13,0-26c0-2,.78-2.81,2.81-3,.39,0,.78,0,1.17,0H74.18a12,12,0,0,1,1.56.09,2.39,2.39,0,0,1,2.43,2.67q0,8.12,0,16.23,0,5.06,0,10.11c0,1.85-.93,2.74-2.87,2.74Z"/></g></g></svg>