<svg xmlns="http://www.w3.org/2000/svg" viewBox="0 0 100 100"><defs><style>.cls-1{fill:none;}.cls-2{fill:#fff;}</style></defs><title>pet-friendly</title><g id="Layer_2" data-name="Layer 2"><g id="Layer_1-2" data-name="Layer 1"><rect class="cls-1" width="100" height="100"/><path class="cls-2" d="M50,15A35,35,0,1,0,85,50,35,35,0,0,0,50,15Zm4.74,13.9A4.69,4.69,0,0,1,62.31,30c2.48,4.16,1.17,10.69-2.73,13.57a4.65,4.65,0,0,1-7.34-1.83,33.42,33.42,0,0,1-1.31-4.39C51.27,34,52.27,31.15,54.74,28.9ZM36.49,31.68c1.41-4.42,5.52-5.4,8.84-2.15A11.85,11.85,0,0,1,47.8,41.36c-1.45,3.6-5,4.51-8,2-2.59-2.2-3.66-5.11-3.82-8.95A18.8,18.8,0,0,1,36.49,31.68ZM31.59,56.75a10.82,10.82,0,0,1-4.8-6.95A7.81,7.81,0,0,0,26.5,49V46.58a22.35,22.35,0,0,1,.84-2.26,4.1,4.1,0,0,1,5.31-2.18c3.21,1.14,4.89,3.65,5.77,6.78a8.82,8.82,0,0,1,.13,5.17C37.5,57.37,34.55,58.53,31.59,56.75Zm31,15.75a9.25,9.25,0,0,1-5.07-1.05c-.85-.4-1.71-.76-2.57-1.12a9.59,9.59,0,0,0-7.6.11c-2.81,1.13-5.62,2.14-8.75,1.85-2.49-.23-3.38-1.12-3.32-4.53.93-4.37,2.34-9.48,6.41-13.18,3.39-3.09,7.55-4.39,12.11-3a10.87,10.87,0,0,1,4,2.43,31.09,31.09,0,0,1,7.83,11.39,9.39,9.39,0,0,1,.63,2.84A4,4,0,0,1,62.64,72.49ZM73.5,48.3a41.29,41.29,0,0,1-2,4.64,7.55,7.55,0,0,1-4.64,3.73,4.13,4.13,0,0,1-4.92-2.21c-2.33-4.49.8-11.77,5.67-13.17A4.32,4.32,0,0,1,72.9,44c.23.6.4,1.22.6,1.83Z"/></g></g></svg>