<svg xmlns="http://www.w3.org/2000/svg" viewBox="0 0 100 100"><defs><style>.cls-1{fill:none;}.cls-2{fill:#fff;}</style></defs><title>pogled-more</title><g id="Layer_2" data-name="Layer 2"><g id="Layer_1-2" data-name="Layer 1"><rect class="cls-1" width="100" height="100"/><g id="_1UOPYT.tif" data-name="1UOPYT.tif"><path class="cls-2" d="M75.43,23.22c.69-.66,1.34-1.32,2-1.92a1.83,1.83,0,0,1,2.77.05A1.68,1.68,0,0,1,80.18,24c-1.87,1.4-1.88,2.84-.66,4.63a8.48,8.48,0,0,1,.7,2.14c.85,0,1.71,0,2.58,0,1.27,0,2.13.67,2.11,2s-.91,1.9-2.18,1.92c-.81,0-1.62,0-2.37,0-.6,1.4-1.21,2.66-1.68,4A1.8,1.8,0,0,0,78.92,40c.38.58,1.2,1,1.37,1.58a3.45,3.45,0,0,1-.14,2.48,1.6,1.6,0,0,1-2.46.2c-.76-.6-1.44-1.32-2.13-2-1.39.54-2.77,1-4.08,1.61a1.64,1.64,0,0,0-.69,1.1c-.14.74.12,1.63-.2,2.24S69.42,48.7,68.8,48.7,67,47.73,67,47.33c.41-2.9-1.36-3.83-3.61-4.48a7.8,7.8,0,0,1-1.27-.66c-.64.61-1.28,1.27-2,1.87a1.94,1.94,0,1,1-2.75-2.73,2.83,2.83,0,0,1,.45-.47c1.24-.91,1.54-1.86.56-3.25a12.79,12.79,0,0,1-1.13-3c-.87,0-1.73,0-2.6,0a1.87,1.87,0,0,1-2-1.89c0-1.31.82-2,2.09-2,.81,0,1.63,0,2.43,0,.64-1.44,1.29-2.79,1.83-4.18a1.41,1.41,0,0,0-.29-1.11c-.45-.61-1.25-1-1.48-1.7a3.13,3.13,0,0,1,.12-2.35,1.6,1.6,0,0,1,2.45-.3c.82.62,1.53,1.37,2.21,2,1.4-.54,2.73-1,4-1.59a1.87,1.87,0,0,0,.77-1.2c.15-.68,0-1.41.14-2.11.15-1.09.91-1.77,1.91-1.53.69.17,1.78,1.05,1.72,1.5-.34,2.7,1.12,3.73,3.38,4.29A7.26,7.26,0,0,1,75.43,23.22Zm-6.6,1.88a7.6,7.6,0,1,0,7.61,7.56A7.64,7.64,0,0,0,68.83,25.1Z"/><path class="cls-2" d="M65.89,65.16c-2.49-.64-4.88-1.27-7.29-1.86a2.16,2.16,0,0,0-1.22,0,18.8,18.8,0,0,1-14.75,0,2,2,0,0,0-1.36.08,19,19,0,0,1-14.46,0,3.11,3.11,0,0,0-1.51,0c-2.66.43-5.3,1-8,1.32A1.89,1.89,0,0,1,15,62.79c-.07-1.26.79-2,2.42-2,2.8,0,5.52-.1,7.88-2,.4-.33,1.62-.08,2.19.31,3.45,2.32,9.84,2.41,13.14,0a2.11,2.11,0,0,1,2.81,0c3.32,2.38,9.87,2.39,13.1,0a2.11,2.11,0,0,1,2.81,0c3.39,2.43,9.7,2.36,13.14.07A2.71,2.71,0,0,1,74.95,59c2,1.64,4.38,1.79,6.78,1.83s3.28.53,3.27,2-.95,2.15-3.29,1.93-4.66-.87-7-1.29a4.27,4.27,0,0,0-1.67,0C70.69,63.93,68.35,64.54,65.89,65.16Z"/><path class="cls-2" d="M81.29,74.24c-2.19-.57-4.37-1.16-6.57-1.68a3,3,0,0,0-1.66,0,18.9,18.9,0,0,1-14.31,0,2.07,2.07,0,0,0-1.35-.11,18.86,18.86,0,0,1-14.75,0,2,2,0,0,0-1.36.08,19,19,0,0,1-14.46,0,2.14,2.14,0,0,0-1.5.06,17.72,17.72,0,0,1-8.14,1.32c-1.33,0-2.24-.65-2.17-2.08s1-1.75,2.25-1.84c1.83-.14,3.66-.36,5.49-.61a2.38,2.38,0,0,0,1.33-.56c1.46-1.51,2.72-1.19,4.25,0,2.21,1.74,10.29,1.64,12.2-.4a1.84,1.84,0,0,1,2.65-.33c3.32,2.58,7.06,2.08,10.78,1.43a7,7,0,0,0,2.58-1.27,2.16,2.16,0,0,1,2.82,0c3.39,2.42,9.74,2.35,13.14.07a2.7,2.7,0,0,1,2.45-.17C76.84,69.64,79,69.85,81.24,70c.54,0,1.09,0,1.63,0,1.27,0,2.12.61,2.11,2s-.89,1.89-2.13,2c-.49,0-1,0-1.47,0Z"/><path class="cls-2" d="M81.23,83.39c-2.19-.57-4.37-1.17-6.57-1.7a3,3,0,0,0-1.66,0,18.84,18.84,0,0,1-14.31-.05,2,2,0,0,0-1.35-.06,19,19,0,0,1-14.61.05,2.2,2.2,0,0,0-1.5.05,19.13,19.13,0,0,1-14.31,0,2.41,2.41,0,0,0-1.65,0A17.76,17.76,0,0,1,17.13,83C15.89,83,15,82.39,15,81s.89-1.85,2.14-1.94c1.73-.12,3.47-.22,5.17-.51a5.59,5.59,0,0,0,2.3-1.12,2.16,2.16,0,0,1,2.94-.06c3.3,2.41,9.71,2.4,13.1,0a2.12,2.12,0,0,1,2.81,0c3.28,2.39,9.75,2.34,13.1-.08a2.07,2.07,0,0,1,2.68,0c3.67,2.53,9.45,2.45,13.39,0a2.44,2.44,0,0,1,2.21-.1c2.11,1.75,4.57,1.86,7.09,1.9.38,0,.76,0,1.14,0A1.82,1.82,0,0,1,85,81a1.85,1.85,0,0,1-1.87,2,15.4,15.4,0,0,1-1.79,0Z"/><path class="cls-2" d="M26.31,33.46c-.41-.2-.85-.39-1.27-.61-2.66-1.42-5.32-2.83-8-4.27-.56-.3-1.34-.58-1.54-1.06a2.33,2.33,0,0,1,.11-2.06,2.63,2.63,0,0,1,2.24-.63,78.64,78.64,0,0,1,7.39,3.32,2,2,0,0,0,2.17,0c2.41-1.22,4.89-2.31,7.37-3.38A1.8,1.8,0,0,1,37.43,26a1.8,1.8,0,0,1-1.29,2.44C33,29.52,29.95,30.73,27.43,33A3.8,3.8,0,0,1,26.31,33.46Z"/><path class="cls-2" d="M31.55,45.23c-.45-.23-.93-.45-1.39-.7l-7.69-4.1c-.56-.3-1.39-.52-1.59-1a2.55,2.55,0,0,1,0-2.18,2.51,2.51,0,0,1,2.22-.66,69.68,69.68,0,0,1,7.26,3.23,2.24,2.24,0,0,0,2.46,0c2.29-1.21,4.69-2.22,7.07-3.26a1.87,1.87,0,0,1,2.79,1.09c.46,1.26-.23,2.11-1.4,2.52-3.08,1.09-6.09,2.29-8.56,4.55A4,4,0,0,1,31.55,45.23Z"/></g></g></g></svg>