<svg xmlns="http://www.w3.org/2000/svg" viewBox="0 0 100 100"><defs><style>.cls-1{fill:#fff;}.cls-2{fill:none;}</style></defs><title>stepenice</title><g id="Layer_2" data-name="Layer 2"><g id="Layer_1-2" data-name="Layer 1"><polygon class="cls-1" points="21.06 75.34 21.06 70.43 29.81 70.43 29.81 67.49 29.81 67.16 29.81 62.26 38.56 62.26 38.56 59.32 38.56 58.99 38.56 54.09 47.31 54.09 47.31 51.14 47.31 50.82 47.31 45.91 56.06 45.91 56.06 42.97 56.06 42.64 56.06 37.74 64.81 37.74 64.81 34.8 64.81 34.47 64.81 29.57 73.56 29.57 73.56 28.26 73.56 26.3 73.56 23.03 82.31 23.03 82.31 19.76 73.56 19.76 70.19 19.76 70.19 26.3 64.81 26.3 61.44 26.3 61.44 34.47 56.06 34.47 52.69 34.47 52.69 42.64 47.31 42.64 43.94 42.64 43.94 50.82 38.56 50.82 35.19 50.82 35.19 58.99 29.81 58.99 26.44 58.99 26.44 67.16 21.06 67.16 17.69 67.16 17.69 75.34 15 75.34 15 80.24 85 80.24 85 75.34 21.06 75.34"/><rect class="cls-2" width="100" height="100"/></g></g></svg>