<svg xmlns="http://www.w3.org/2000/svg" viewBox="0 0 100 100"><defs><style>.cls-1{fill:none;}.cls-2{fill:#fff;}</style></defs><title>sef</title><g id="Layer_2" data-name="Layer 2"><g id="Layer_1-2" data-name="Layer 1"><rect class="cls-1" width="100" height="100"/><g id="SND1IZ.tif"><path class="cls-2" d="M50.07,22.15H82.45c1.76,0,2.55.79,2.55,2.53Q85,48,85,71.37c0,1.91-.83,2.76-2.77,2.7a1.13,1.13,0,0,0-1.32.86,20.11,20.11,0,0,1-1.1,2.47.9.9,0,0,1-.65.43q-6.5,0-13,0a.9.9,0,0,1-.64-.44c-.45-.91-.86-1.85-1.25-2.78a.71.71,0,0,0-.77-.52q-13.51,0-27,0a.71.71,0,0,0-.76.52c-.38.92-.81,1.82-1.19,2.73a.71.71,0,0,1-.77.52q-6.43,0-12.85,0a.7.7,0,0,1-.77-.5c-.39-.94-.84-1.85-1.23-2.79a.63.63,0,0,0-.73-.47,7,7,0,0,1-.83,0A2.31,2.31,0,0,1,15,71.89c0-.21,0-.42,0-.62q0-23.17,0-46.34c0-2,.76-2.78,2.76-2.78H50.07Zm0,3.44h-27a6,6,0,0,0-1.71.22,3.89,3.89,0,0,0-2.81,3.86q0,18.17,0,36.33A4.24,4.24,0,0,0,23,70.51h54a4.26,4.26,0,0,0,4.47-4.44q0-18.17,0-36.33a4.34,4.34,0,0,0-.09-1,4.12,4.12,0,0,0-4.25-3.18Z"/><path class="cls-2" d="M50.08,28H76.9a5,5,0,0,1,.9,0,1.62,1.62,0,0,1,1.51,1.82q0,7.05,0,14.1,0,10.94,0,21.88A2.06,2.06,0,0,1,77,68.11H23.33c-1.71,0-2.35-.65-2.35-2.34Q21,48,21,30.27c0-1.83.45-2.29,2.29-2.29H50.08ZM34.57,40a7.52,7.52,0,0,0-.06,15,7.52,7.52,0,1,0,.06-15Zm21,2.5h3.69V38.85H55.58Zm13.49-3.7v3.71h3.56V38.82Zm-6.67,0v3.71h3.42V38.82Zm-6.83,10.8h3.72v-3.4H55.57Zm0,7.21h3.7V53.44h-3.7ZM69,49.62h3.59V46.21H69Zm3.59,3.8H69.07v3.42h3.57ZM62.4,46.19v3.43h3.42V46.19Zm0,10.66h3.44v-3.4H62.38Z"/><path class="cls-2" d="M29.86,47.49a4.71,4.71,0,0,1,9.42.1,4.76,4.76,0,0,1-4.73,4.65A4.71,4.71,0,0,1,29.86,47.49Z"/></g></g></g></svg>