<svg xmlns="http://www.w3.org/2000/svg" viewBox="0 0 100 100"><defs><style>.cls-1{fill:none;}.cls-2{fill:#fff;}</style></defs><title>budjenje</title><g id="Layer_2" data-name="Layer 2"><g id="Layer_1-2" data-name="Layer 1"><rect class="cls-1" width="100" height="100"/><g id="JudJAB.tif"><path class="cls-2" d="M51.1,15a9,9,0,0,1,1.63,1.41,3,3,0,0,1-.89,4.27,1.1,1.1,0,0,0-.56,1.08c0,1.33,0,2.66,0,4,13.14,1.44,22.47,8,26.16,20.79s-.68,23.27-11,31.49l2.78,2.78A2.41,2.41,0,0,1,70,83a2.21,2.21,0,0,1-1.5,1.86A2.28,2.28,0,0,1,66,84.35c-1.18-1.15-2.35-2.31-3.5-3.49a.86.86,0,0,0-1.14-.24,27.86,27.86,0,0,1-22.75,0,.82.82,0,0,0-1.07.23c-1.09,1.13-2.21,2.23-3.32,3.33a2.47,2.47,0,0,1-3.51.17,2.43,2.43,0,0,1,.15-3.56l1.38-1.39L33.64,78C23.35,69.82,19,59.31,22.66,46.5s13-19.3,26.16-20.79c0-1.43,0-2.91,0-4.39a.66.66,0,0,0-.31-.48,3.17,3.17,0,0,1,.45-5.74s.08-.07.11-.1Zm21,39.4a22,22,0,1,0-22,22A22.1,22.1,0,0,0,72.08,54.4Z"/><path class="cls-2" d="M15.17,31.79a20,20,0,0,1,1.89-7c5.14-10,19.32-11.23,26.08-2.29a2.7,2.7,0,0,1,.14.25c-11.2,2.72-19.11,9.33-23.65,20a14.56,14.56,0,0,1-2.86-4.08,16.33,16.33,0,0,1-1.46-5.26c0-.34-.1-.67-.15-1Z"/><path class="cls-2" d="M84.83,33.35c-.16.82-.29,1.64-.49,2.45a15.56,15.56,0,0,1-3.89,7,32.42,32.42,0,0,0-23.78-20c.79-.84,1.41-1.63,2.17-2.28,4.69-4.05,10-5.18,15.84-3s9.08,6.53,10,12.66c0,.23.1.45.15.68Z"/><path class="cls-2" d="M52.25,52.79c2.47,0,4.82,0,7.17,0a2.16,2.16,0,0,1,2,3.16,2,2,0,0,1-1.86,1.22c-3.19,0-6.37,0-9.56,0a2.06,2.06,0,0,1-2.11-2.09q0-7.33,0-14.66a2.2,2.2,0,0,1,4.41.12c0,3.74,0,7.47,0,11.21C52.25,52.09,52.25,52.42,52.25,52.79Z"/></g></g></g></svg>