<svg xmlns="http://www.w3.org/2000/svg" viewBox="0 0 100 100"><defs><style>.cls-1{fill:none;}.cls-2{fill:#fff;}</style></defs><title>vodeni-sportovi</title><g id="Layer_2" data-name="Layer 2"><g id="Layer_1-2" data-name="Layer 1"><rect class="cls-1" width="100" height="100"/><g id="_0UabQ5.tif" data-name="0UabQ5.tif"><path class="cls-2" d="M15.1,51.79c1.83.25,3.62.37,5.35.78s3.4,1.11,5.15,1.71A26.93,26.93,0,0,1,24.09,34a26.57,26.57,0,0,1,13-15.71A27.23,27.23,0,0,1,74.34,54.45,22,22,0,0,1,84.9,52V57.7c-.91.08-1.83.15-2.75.25a22.53,22.53,0,0,0-5.86,2,23,23,0,0,1-16.81.33c-1.55-.54-3-1.36-4.57-1.81a16.79,16.79,0,0,0-11.5.6,26.77,26.77,0,0,1-7.55,2.4,23.33,23.33,0,0,1-12.19-1.52,20.41,20.41,0,0,0-5.79-2c-.9-.1-1.81-.17-2.78-.25ZM65.29,29.35c-.26.81-.48,1.61-.77,2.39-1.75,4.7-4.9,8.37-8.64,11.61a50.38,50.38,0,0,1-9.08,6.15c-.24.13-.55.37-.58.58a18.11,18.11,0,0,0,0,2c.3,0,.45,0,.6,0a28.1,28.1,0,0,1,7.25.12,1.19,1.19,0,0,0,.81-.26c1.64-1.31,3.33-2.56,4.86-4a33.52,33.52,0,0,0,9-13.12,3.93,3.93,0,0,0-.37-3.65A3.85,3.85,0,0,0,65.29,29.35ZM34.47,27.58A60.41,60.41,0,0,1,53.82,40.12c1.29-1.39,2.53-2.71,3.73-4.07a.8.8,0,0,0-.05-.75A37.92,37.92,0,0,0,41.43,23,.93.93,0,0,0,40.8,23,20.48,20.48,0,0,0,34.47,27.58Zm16.25,15A57.42,57.42,0,0,0,32,30.79a20,20,0,0,0-2.61,6c2.79,1.4,5.56,2.61,8.13,4.14s4.94,3.38,7.55,5.19ZM59,53.82c1.43.53,2.72,1,4,1.46a.94.94,0,0,0,.78-.24c1.62-1.66,3.32-3.25,4.78-5a10.38,10.38,0,0,0,2.55-5,16.51,16.51,0,0,0-.09-5.5A43,43,0,0,1,59,53.82Zm1-21.67h.25c.42-1.41.87-2.82,1.24-4.24a1,1,0,0,0-.32-.84c-1.85-1.67-3.71-3.34-5.61-4.94a3.75,3.75,0,0,0-1.79-.9c-1.67-.21-3.36-.27-5.05-.33a12.9,12.9,0,0,0-1.82.18A46.88,46.88,0,0,1,60,32.14ZM42.3,53.2c0-1.29,0-2.5,0-3.71a.94.94,0,0,0-.37-.61c-1.8-1.38-3.62-2.74-5.44-4.1a1,1,0,0,0-.31-.08,32.45,32.45,0,0,0,.77,10.7ZM29.92,41.39c-.27,1-.49,2-.76,2.89a4.46,4.46,0,0,0,0,2.74c.5,1.47.95,3,1.56,4.4a33.39,33.39,0,0,0,1.77,3.18c0-1.36-.25-2.63-.26-3.91,0-2.49.09-5,.12-7.48a1.05,1.05,0,0,0-.29-.8C31.44,42,30.74,41.76,29.92,41.39Z"/><path class="cls-2" d="M84.92,75.27V81a18.17,18.17,0,0,0-3.11.33,49.5,49.5,0,0,0-5.28,1.81,23,23,0,0,1-18.06,0,21.16,21.16,0,0,0-6.26-2,17.52,17.52,0,0,0-9,1.27,23.57,23.57,0,0,1-19.6.74,19,19,0,0,0-6.55-2l-1.93-.11V75.2c1.33.12,2.66.19,4,.36a21.86,21.86,0,0,1,6.11,2,16.9,16.9,0,0,0,14.66,0,23.31,23.31,0,0,1,14.63-1.84,31.86,31.86,0,0,1,6,2,17.1,17.1,0,0,0,14,0,24,24,0,0,1,9.93-2.41Z"/><path class="cls-2" d="M84.92,63.62v5.73a17.94,17.94,0,0,0-3,.31,38,38,0,0,0-5.08,1.7,23.47,23.47,0,0,1-16.3.92,41.35,41.35,0,0,1-3.94-1.57,16.67,16.67,0,0,0-13.27,0A26.14,26.14,0,0,1,33.16,73.3a22,22,0,0,1-9.4-1.69c-2.75-1.25-5.54-2.34-8.69-2.15V63.64a19.35,19.35,0,0,1,7.1,1c1.33.47,2.62,1.07,3.93,1.59a16.92,16.92,0,0,0,12.72,0c2.4-.94,4.71-2.1,7.31-2.42a23.48,23.48,0,0,1,12.51,1.37,21.18,21.18,0,0,0,6.75,2.14,17.31,17.31,0,0,0,8.9-1.28,22.55,22.55,0,0,1,10-2.48Z"/></g></g></g></svg>