<svg xmlns="http://www.w3.org/2000/svg" viewBox="0 0 100 100"><defs><style>.cls-1{fill:#fff;}.cls-2{fill:none;}</style></defs><title>pusenje_dozvoljeno</title><g id="Layer_2" data-name="Layer 2"><g id="Layer_1-2" data-name="Layer 1"><path class="cls-1" d="M31,55.86l-4,0v6.22c.31,0,.62.08.93.08H65.34c.3,0,.6,0,.91-.06V55.86H31Z"/><path class="cls-1" d="M72.72,49.28a8.74,8.74,0,0,0-7.61-7.51,20.87,20.87,0,0,0-2.53,0c.84-2.49.88-4.76-.54-6.85a7.06,7.06,0,0,0-6-3.07v2.06c.46.09.89.16,1.32.26a4.59,4.59,0,0,1,3.62,5,17.61,17.61,0,0,1-1,2.72c-.15.45-.39,1.07-.2,1.36a1.93,1.93,0,0,0,1.34.6c1,.09,2.07,0,3.11,0a6.15,6.15,0,0,1,5.46,3.28,7.46,7.46,0,0,1,1,4c0,1.18,0,2.36,0,3.56h2.22V50A6.75,6.75,0,0,1,72.72,49.28Z"/><path class="cls-1" d="M70.74,62.05h2.17V55.83l-2.17-.11Z"/><path class="cls-1" d="M69.42,50.61c-.38-2.41-2.33-3.81-5.17-3.88-1.85,0-3.71,0-5.56,0a3,3,0,0,1-3-3.93c.6-2.23.6-2.23-1.75-2.44a4.33,4.33,0,0,1-4.07-3.88A4.12,4.12,0,0,1,53.37,32a3.61,3.61,0,0,0,.41-.15V29.91c-2.51-.39-5.1,1.66-5.85,4.58-1,3.72.84,6.35,5.53,8.06,0,.21,0,.42,0,.64-.1,3.63,1.86,5.67,5.46,5.67,1.76,0,3.52,0,5.28,0,2.19,0,3.23,1.12,3.23,3.28,0,.84,0,1.68,0,2.54h2A26.65,26.65,0,0,0,69.42,50.61Z"/><path class="cls-1" d="M67.49,62.08h2V55.8h-2Z"/><path class="cls-1" d="M50,15A35,35,0,1,0,85,50,35,35,0,0,0,50,15Zm0,66A31,31,0,1,1,81,50,31,31,0,0,1,50,81Z"/><rect class="cls-2" width="100" height="100"/></g></g></svg>