<svg xmlns="http://www.w3.org/2000/svg" viewBox="0 0 100 100"><defs><style>.cls-1{fill:none;}.cls-2{fill:#fff;}</style></defs><title>parking</title><g id="Layer_2" data-name="Layer 2"><g id="Layer_1-2" data-name="Layer 1"><rect class="cls-1" width="100" height="100"/><g id="_1E4GmM.tif" data-name="1E4GmM.tif"><path class="cls-2" d="M50,85c-9.24,0-18.49,0-27.73,0a11.11,11.11,0,0,1-2.83-.37,5.73,5.73,0,0,1-4.32-5.17A12.83,12.83,0,0,1,15,77.56q0-27.41,0-54.81a12.09,12.09,0,0,1,.29-2.65,6,6,0,0,1,5.4-4.9A17.93,17.93,0,0,1,23.19,15q26.88,0,53.75,0a14.81,14.81,0,0,1,2.73.23A6.1,6.1,0,0,1,84.87,21,19,19,0,0,1,85,23.09q0,27.19,0,54.39a12.59,12.59,0,0,1-.3,2.78c-.64,2.8-2.64,4.42-5.67,4.68-.51,0-1,.06-1.52.06ZM43.45,57.86h.76c3.36,0,6.72,0,10.07,0a12.86,12.86,0,0,0,2-.16A16.09,16.09,0,0,0,68.13,34.34c-2.94-5.65-7.63-8.71-14.15-8.7-6.35,0-12.7,0-19.05,0h-.74v47.9h9.26Z"/><path class="cls-2" d="M43.55,49V34.51h.7c3.14,0,6.27.07,9.41,0a7.27,7.27,0,0,1,7.2,7,6.91,6.91,0,0,1-5.59,7.42,5.85,5.85,0,0,1-1.15.12H44Z"/></g></g></g></svg>