<svg xmlns="http://www.w3.org/2000/svg" viewBox="0 0 100 100"><defs><style>.cls-1{fill:none;}.cls-2{fill:#fff;}</style></defs><title>wireless</title><g id="Layer_2" data-name="Layer 2"><g id="Layer_1-2" data-name="Layer 1"><rect class="cls-1" width="100" height="100"/><g id="_1kxQJK.tif" data-name="1kxQJK.tif"><path class="cls-2" d="M15,35.09A4.32,4.32,0,0,1,16.83,33,57.41,57.41,0,0,1,43,23.1,57.86,57.86,0,0,1,83.6,33.3a2.74,2.74,0,1,1-3.11,4.49,52,52,0,0,0-22.81-9.08,52.56,52.56,0,0,0-37.8,8.8,5,5,0,0,1-1.75.84c-1.4.26-2.28-.37-3.13-2Z"/><path class="cls-2" d="M50.47,36.33A41.79,41.79,0,0,1,74.25,44a2.67,2.67,0,0,1,1.25,2.76,2.57,2.57,0,0,1-1.92,2.18,2.81,2.81,0,0,1-2.52-.49A35.6,35.6,0,0,0,56.58,42.4,36.38,36.38,0,0,0,29.7,47.93l-.91.61a2.73,2.73,0,0,1-3.86-.65A2.7,2.7,0,0,1,25.7,44a41.74,41.74,0,0,1,10.85-5.52A43.17,43.17,0,0,1,50.47,36.33Z"/><path class="cls-2" d="M50,50.08a25.82,25.82,0,0,1,14.83,4.57A2.72,2.72,0,0,1,66,57.87a2.66,2.66,0,0,1-2.81,1.81,3.19,3.19,0,0,1-1.38-.51A20.53,20.53,0,0,0,48.3,55.6a19.84,19.84,0,0,0-9.87,3.45,2.91,2.91,0,0,1-2.5.57,2.73,2.73,0,0,1-.84-4.91,23.39,23.39,0,0,1,8.66-3.87c2-.43,4.13-.63,6.19-.94Z"/><path class="cls-2" d="M50,63.65a6.83,6.83,0,1,1-6.88,6.75A6.83,6.83,0,0,1,50,63.65Z"/></g></g></g></svg>