<svg xmlns="http://www.w3.org/2000/svg" viewBox="0 0 100 100"><defs><style>.cls-1{fill:none;}.cls-2{fill:#fff;}</style></defs><title>centar_dist</title><g id="Layer_2" data-name="Layer 2"><g id="Layer_1-2" data-name="Layer 1"><rect class="cls-1" width="100" height="100"/><path class="cls-2" d="M21.89,63.6c0,2.25,1,3.3,2.46,3.3a2.09,2.09,0,0,0,2.23-2.21H29V65c0,2.12-1.69,4-4.65,4s-4.94-2-4.94-5.39V62.28c0-3.41,1.85-5.41,4.94-5.41C27.21,56.86,29,58.74,29,61v.25H26.58a2.19,2.19,0,0,0-2.25-2.31c-1.48,0-2.45,1.1-2.45,3.34Z"/><path class="cls-2" d="M38.47,68.76H30.84V57.09h7.62v2H33.3v2.84h4.86v1.86H33.3v3h5.17Z"/><path class="cls-2" d="M40.54,68.76V57.09h2l5,7.49h.09V57.09H50V68.76H48l-5-7.54h-.09v7.54Z"/><path class="cls-2" d="M54.57,68.76V59.14H51.3V57.09h9v2.05H57v9.62Z"/><path class="cls-2" d="M59.51,68.76l3.87-11.68h2.93l3.85,11.68H67.51l-.86-2.9h-3.8L62,68.76Zm5.2-9.35L63.34,64h2.83l-1.35-4.63Z"/><path class="cls-2" d="M80.4,60.81a3.45,3.45,0,0,1-2.11,3.28l2.34,4.66H77.87l-2-4.29H73.92v4.29H71.48V57.09h4.76C79,57.09,80.4,58.71,80.4,60.81Zm-4.55,1.83c1.23,0,2-.62,2-1.79a1.77,1.77,0,0,0-2-1.86h-2v3.65Z"/><path class="cls-2" d="M32.42,84.78V75.41h-.09c-.31.17-2.27,1.45-2.67,1.74V74.91c.44-.32,2.36-1.57,2.81-1.8h2.4V84.78Z"/><path class="cls-2" d="M39.38,81.6a1.86,1.86,0,0,0,2,1.46,2.07,2.07,0,0,0,2.08-2.14,2,2,0,0,0-2.07-2.12,2.12,2.12,0,0,0-2,1.17H37.26l.54-6.88h7.27v2h-5.3L39.49,78h.09a3.1,3.1,0,0,1,2.5-1,3.74,3.74,0,0,1,3.85,3.86C45.93,83.37,44,85,41.37,85s-4.19-1.56-4.26-3.4Z"/><path class="cls-2" d="M47.2,78.54c0-3.39,1.63-5.66,4.51-5.66s4.46,2.26,4.46,5.66v.79c0,3.22-1.51,5.67-4.5,5.67s-4.47-2.28-4.47-5.67Zm2.47.78c0,2.44.8,3.67,2,3.67s2-1.24,2-3.67v-.77c0-2.43-.8-3.66-2-3.66s-2,1.22-2,3.66Z"/><path class="cls-2" d="M58,84.78V73.1h2.53l3.22,7.24h.08L67.1,73.1h2.51V84.78H67.38V77.22h-.1l-2.69,6H63l-2.69-6h-.1v7.56Z"/><path class="cls-2" d="M73.81,47.13V35H72.3v-.76h.76v-3H67.76v3h.76V35H67V47.13H65.5V21.43L59.83,15,53.4,21.43v25.7H51.89V29.74H48.11V47.13H46.6V35l-3.9-4.42L38.28,35V47.13H36.77V25.2H31.86V17.65H31.1V25.2H26.19V47.13H24.68v3.78H75.32V47.13ZM60.58,22.94h3v3h-3Zm0,4.54h3v3h-3Zm0,4.54h3v3h-3Zm0,4.54h3v3h-3Zm0,4.54h3v3h-3ZM55.29,22.94h3v3h-3Zm0,4.54h3v3h-3Zm0,4.54h3v3h-3Zm0,4.54h3v3h-3Zm0,4.54h3v3h-3ZM32.24,32.76h3v3h-3Zm0,9.07h3v3h-3Zm-1.51-.76h-3v-3h3Zm-3.4-14.74h3v3h-3Zm15.12,10.2a1.51,1.51,0,1,1-1.51,1.51A1.51,1.51,0,0,1,42.44,36.54ZM40.93,44.1h3v3h-3Z"/></g></g></svg>