<svg xmlns="http://www.w3.org/2000/svg" viewBox="0 0 100 100"><defs><style>.cls-1{fill:none;}.cls-2{fill:#fff;}</style></defs><title>komplet-kuhinja</title><g id="Layer_2" data-name="Layer 2"><g id="Layer_1-2" data-name="Layer 1"><rect class="cls-1" width="100" height="100"/><g id="IYoRNV.tif"><path class="cls-2" d="M58.05,18.5c.24,1.15.83,2.35.66,3.44C58.08,26,59.58,28.8,63,31a84,84,0,0,1,8.45,6.79,7.19,7.19,0,0,1,1.19,2.09,6.47,6.47,0,0,1-2.11.83q-20.56.07-41.12,0a6.43,6.43,0,0,1-2.11-.84,6.22,6.22,0,0,1,1.06-2c3.89-3.25,7.88-6.39,11.77-9.65a3.42,3.42,0,0,0,1-2.15c.15-1.8,0-3.62.08-5.42A9.4,9.4,0,0,1,42,18.5Z"/><path class="cls-2" d="M15,56.65c6,0,12-.09,18,0a1.71,1.71,0,0,1,1.18,1.19c.07,7.52.06,15,0,22.55a4.59,4.59,0,0,1-.31,1.15H15Z"/><path class="cls-2" d="M66.1,81.5a11,11,0,0,1-.32-1.85c0-7.11,0-14.22,0-21.33,0-.88-.15-1.79,1.23-1.78,6,.06,12,.07,18,.11V81.5Z"/><path class="cls-2" d="M37.05,81.5c-.08-1.56-.22-3.12-.23-4.68,0-4,0-8,0-12.09H63.19c0,3.09,0,6.11,0,9.12,0,2.55-.15,5.1-.23,7.65Zm18.1-5.64V70.18H44.84v5.69Z"/><path class="cls-2" d="M37,61.84a2,2,0,0,1-.17-.43c-.39-4.86-.39-4.86,4.41-4.86,6.7,0,13.4,0,20.09,0,1.48,0,2,.48,1.86,1.91-.09,1.09,0,2.19,0,3.41Z"/></g></g></g></svg>