<svg xmlns="http://www.w3.org/2000/svg" viewBox="0 0 100 100"><defs><style>.cls-1{fill:none;}.cls-2{fill:#fff;}</style></defs><title>telefon</title><g id="Layer_2" data-name="Layer 2"><g id="Layer_1-2" data-name="Layer 1"><rect class="cls-1" width="100" height="100"/><g id="ZNHGWh.tif"><path class="cls-2" d="M17.37,35.7c0-.46.06-.93.09-1.39A22.5,22.5,0,0,1,19.24,27a21.05,21.05,0,0,1,3.16-5.13,21.74,21.74,0,0,1,3-2.91c.92-.75,1.82-1.54,2.72-2.32a7.32,7.32,0,0,1,2-1.29,4.21,4.21,0,0,1,3.81.28,10.6,10.6,0,0,1,3,2.76A53.93,53.93,0,0,1,40.06,23a31.33,31.33,0,0,1,2,3.54,12.14,12.14,0,0,1,1.21,3.93,6.18,6.18,0,0,1-1.61,5c-.75.81-1.63,1.51-2.44,2.27a25.17,25.17,0,0,1-2.55,2,5.35,5.35,0,0,0-2.19,3,6.56,6.56,0,0,0,0,3.21A15.67,15.67,0,0,0,36.25,50a42.57,42.57,0,0,0,4.52,6.35,62.3,62.3,0,0,0,5,5.43,25.83,25.83,0,0,0,4.89,3.78,9.52,9.52,0,0,0,3.41,1.26,5,5,0,0,0,4.18-1.28,6.55,6.55,0,0,0,.7-.67A25.71,25.71,0,0,1,62.07,62,15.15,15.15,0,0,1,64,60.55a6.31,6.31,0,0,1,5.4-.53,13,13,0,0,1,4.14,2.26C75,63.49,76.5,64.76,78,66a21.32,21.32,0,0,1,2.89,2.89A7.69,7.69,0,0,1,82.51,72c0,.2.08.39.12.59v.72l-.07.33a5.25,5.25,0,0,1-1.76,2.91C80,77.3,79,78,78.23,78.82a21.3,21.3,0,0,1-13.48,6.09L63.47,85h-1l-.29,0c-.64,0-1.27-.08-1.91-.15a27,27,0,0,1-6.68-1.64,40.62,40.62,0,0,1-9.51-5.26,64.13,64.13,0,0,1-7.09-6,95.27,95.27,0,0,1-7.33-8.06,75.09,75.09,0,0,1-6.16-8.67A44.91,44.91,0,0,1,18.44,43.7a29.08,29.08,0,0,1-1-5.69l-.09-1.32Z"/></g></g></g></svg>