<svg xmlns="http://www.w3.org/2000/svg" viewBox="0 0 100 100"><defs><style>.cls-1{fill:#fff;}.cls-2{fill:none;}</style></defs><title>bilijar</title><g id="Layer_2" data-name="Layer 2"><g id="Layer_1-2" data-name="Layer 1"><g id="bFF1KW.tif"><path class="cls-1" d="M15,82.81V34.69c.57-1.71,1.83-2.23,3.55-2.21,3.69.06,7.38,0,11.07,0h.81l-.49-.72-10-14.08c-.83-1.17-.73-1.8.41-2.69h1a6.84,6.84,0,0,1,.91.89q5.67,8,11.31,16a1.3,1.3,0,0,0,1.22.62c15.58,0,31.15,0,46.73,0,1.72,0,3,.5,3.54,2.21V82.81A3.27,3.27,0,0,1,82.81,85H17.19A3.26,3.26,0,0,1,15,82.81Zm64.11-9.54V44.18a5.92,5.92,0,0,1-5.79-5.78H55.89C55.19,42,53.3,44,50.44,44.14a5.75,5.75,0,0,1-3.75-1,6,6,0,0,1-2.56-4.71H38.41l.31.47,11.83,16.9a1.48,1.48,0,0,1-.24,2.07,1.29,1.29,0,0,1-1.84-.09,4,4,0,0,1-.61-.73Q41.39,48,34.95,38.88a1.14,1.14,0,0,0-1.06-.55c-2.16,0-4.33,0-6.49,0-.24,0-.48,0-.73,0a5.8,5.8,0,0,1-1.71,4.06,5.87,5.87,0,0,1-4.06,1.73v29.1c3.52.41,5.43,2.37,5.83,5.82H44.11c.65-3.57,2.58-5.57,5.45-5.74a5.73,5.73,0,0,1,3.8,1.06,6,6,0,0,1,2.5,4.68H73.3C73.8,75.51,75.27,74,79.11,73.27Zm-32-34.88a2.67,2.67,0,0,0,2.92,2.86,2.63,2.63,0,0,0,2.76-2.86Zm0,40.73h5.68a2.84,2.84,0,1,0-5.68,0Zm32-40.72H76.28a2.61,2.61,0,0,0,2.84,2.78ZM20.89,76.28V79.1h2.84A2.68,2.68,0,0,0,20.89,76.28ZM79.1,79.12V76.28a2.61,2.61,0,0,0-2.77,2.88h2.29ZM20.84,41.23c1.82-.05,3-1.3,2.82-2.84H20.88c0,.24,0,.44,0,.63C20.84,39.74,20.84,40.46,20.84,41.23Z"/><path class="cls-1" d="M55.81,67.5a2.92,2.92,0,1,1,2.94-2.88A2.94,2.94,0,0,1,55.81,67.5Z"/></g><rect class="cls-2" width="100" height="100"/></g></g></svg>