<svg xmlns="http://www.w3.org/2000/svg" viewBox="0 0 100 100"><defs><style>.cls-1{fill:none;}.cls-2{fill:#fff;}</style></defs><title>frizider</title><g id="Layer_2" data-name="Layer 2"><g id="Layer_1-2" data-name="Layer 1"><rect class="cls-1" width="100" height="100"/><g id="vzyWak.tif"><path class="cls-2" d="M30.75,39.08H69.22c0,.3.05.58.05.86q0,18.57,0,37.14c0,3.35-2.06,5.41-5.43,5.41H36.19c-3.35,0-5.43-2.05-5.44-5.41q0-12.53,0-25.05,0-5.91,0-11.83C30.75,39.86,30.75,39.52,30.75,39.08Zm34.12,30V41.7h-2.8V69.05Z"/><path class="cls-2" d="M69.24,37.53H30.82c0-.3-.06-.58-.06-.85,0-5.33.07-10.67,0-16A5.34,5.34,0,0,1,36.41,15c9.16.07,18.32,0,27.48,0a5.06,5.06,0,0,1,5.39,5.38c0,5.45,0,10.9,0,16.35C69.28,37,69.25,37.22,69.24,37.53ZM62.1,22.69V35.41h2.77V22.69Z"/><path class="cls-2" d="M61.9,83.23h2.43V85H61.9Z"/><path class="cls-2" d="M38.12,83.24V85h-2.4V83.24Z"/></g></g></g></svg>