<svg xmlns="http://www.w3.org/2000/svg" viewBox="0 0 100 100"><defs><style>.cls-1{fill:none;}.cls-2{fill:#fff;}</style></defs><title>pegla</title><g id="Layer_2" data-name="Layer 2"><g id="Layer_1-2" data-name="Layer 1"><rect class="cls-1" width="100" height="100"/><g id="o9ihE9.tif"><path class="cls-2" d="M85,55.13a1.92,1.92,0,0,1-2.82.79,1.71,1.71,0,0,1-.8-1.4c-.09-1.19-.12-2.38-.22-3.57a21.07,21.07,0,0,0-1.09-5.57,6.21,6.21,0,0,0-3.13-3.75,6.14,6.14,0,0,0-1.06-.34.56.56,0,0,0-.36.07,12.78,12.78,0,0,0-1.29.73.71.71,0,0,0-.18.52c0,1.42,0,2.83,0,4.25,0,2.53,0,5.07,0,7.6a1.08,1.08,0,0,1-.84,1.2,6.78,6.78,0,0,0-4.9,5.67c-.13.69-.35.85-1.07.85h-51l-.59,0c.44-.65.83-1.25,1.24-1.84a77.56,77.56,0,0,1,5.88-7.43,62.61,62.61,0,0,1,10.67-9.53A55.84,55.84,0,0,1,68,33.18c1.73.08,3.45.31,5.17.5.66.07.87.33.89,1,0,.17,0,.34,0,.5a1.51,1.51,0,0,0,.88,1.74,11.68,11.68,0,0,0,2.43.94,8.43,8.43,0,0,1,5.4,4.9,24.63,24.63,0,0,1,1.92,7.88c.11,1,.23,2,.34,3ZM60.08,50.57c.26,0,.48,0,.7,0,1.4-.17,2.81-.28,4.19-.55a2.22,2.22,0,0,0,1.88-2.22,29.21,29.21,0,0,0-.32-7,2.66,2.66,0,0,0-2.34-2.23,9.19,9.19,0,0,0-2.39,0c-2.29.31-4.56.69-6.84,1.09-4.09.73-8.09,1.72-11.52,4.23a14.28,14.28,0,0,0-4.08,4.6,1.28,1.28,0,0,0,.41,1.78,4.48,4.48,0,0,0,.87.49,15.05,15.05,0,0,0,4.36.86.81.81,0,0,1,.57.3,3,3,0,0,0,2.8,1.81q4.27.12,8.55.13A2.9,2.9,0,0,0,60.08,50.57Z"/><path class="cls-2" d="M15,64l.78,0h54.1c.83,0,.83,0,.83.85,0,.52,0,1,0,1.56,0,.33-.09.49-.44.46-.18,0-.37,0-.56,0H15.78l-.78,0Z"/><path class="cls-2" d="M33.45,38.13h2.76c0,.62,0,1.22,0,1.81a.32.32,0,0,1-.12.23l-2.63,1.7Z"/><path class="cls-2" d="M52.67,52.47h-4a2.32,2.32,0,0,1-.72-.07c-1.55-.52-1.59-1.76-.71-2.6a7.74,7.74,0,0,1,6.65-2A6.89,6.89,0,0,1,58.33,50a1.41,1.41,0,0,1-.75,2.5,6.52,6.52,0,0,1-1.39.09H52.67Z"/></g></g></g></svg>